<svg viewBox="0 0 120 120" fill="none" xmlns="http://www.w3.org/2000/svg">
<path d="M116.569 16.4051C114.803 14.6367 111.939 14.6337 110.174 16.3976L55.9176 70.5105L36.3422 49.2497C34.6507 47.4136 31.7908 47.2945 29.9517 48.9858C28.114 50.6773 27.9963 53.5385 29.6878 55.3762L52.4517 80.0983C53.2854 81.0044 54.4521 81.5306 55.6823 81.5562C55.7154 81.5576 55.7473 81.5576 55.7789 81.5576C56.9744 81.5576 58.1245 81.0827 58.9718 80.2385L116.56 22.8014C118.33 21.0377 118.333 18.1734 116.569 16.4051Z" fill="#FF7433"/>
<path d="M115.477 55.4773C112.979 55.4773 110.955 57.5018 110.955 60C110.955 88.0976 88.0976 110.955 60 110.955C31.9041 110.955 9.04523 88.0976 9.04523 60C9.04523 31.9041 31.9041 9.04523 60 9.04523C62.498 9.04523 64.5227 7.0207 64.5227 4.52273C64.5227 2.02453 62.498 0 60 0C26.9156 0 0 26.9156 0 60C0 93.083 26.9156 120 60 120C93.083 120 120 93.083 120 60C120 57.502 117.975 55.4773 115.477 55.4773Z" fill="#FF7433"/>
</svg>
