<svg width="187" height="61" viewBox="0 0 187 61" fill="none" xmlns="http://www.w3.org/2000/svg">
<path fill-rule="evenodd" clip-rule="evenodd" d="M53.4066 38.6621C52.2961 38.6621 51.2334 38.5061 50.2183 38.194C49.2033 37.882 48.4095 37.4898 47.8369 37.0174L48.6698 35.6005C49.2424 36.0391 49.9624 36.3975 50.83 36.6759C51.6975 36.9542 52.5998 37.0934 53.5367 37.0934C54.786 37.0934 55.7099 36.9036 56.3086 36.524C56.9072 36.1445 57.2065 35.6089 57.2065 34.9173C57.2065 34.4281 57.0416 34.0443 56.712 33.766C56.3823 33.4877 55.9659 33.2768 55.4627 33.1334C54.9595 32.99 54.2915 32.8509 53.4587 32.7159C52.3482 32.5135 51.4546 32.3069 50.7779 32.096C50.1012 31.8851 49.5243 31.5267 49.0471 31.0206C48.57 30.5146 48.3314 29.8145 48.3314 28.9205C48.3314 27.8071 48.8086 26.8962 49.7629 26.1877C50.7172 25.4792 52.0445 25.125 53.7449 25.125C54.6299 25.125 55.5147 25.2389 56.3997 25.4666C57.2846 25.6943 58.0133 25.9937 58.5859 26.3648L57.7791 27.8071C56.6512 27.048 55.3065 26.6685 53.7449 26.6685C52.5651 26.6685 51.6758 26.8709 51.0772 27.2758C50.4786 27.6806 50.1793 28.212 50.1793 28.8699C50.1793 29.3759 50.3485 29.7808 50.6868 30.0844C51.0252 30.388 51.4459 30.6115 51.9491 30.7549C52.4523 30.8983 53.1463 31.0459 54.0312 31.1977C55.1244 31.4002 56.0006 31.6026 56.6599 31.805C57.3193 32.0074 57.8832 32.3532 58.3516 32.8424C58.8201 33.3316 59.0544 34.0064 59.0544 34.8667C59.0544 36.0306 58.5555 36.9542 57.5578 37.6374C56.5601 38.3206 55.1764 38.6621 53.4066 38.6621ZM105.527 19.7607V38.5356H103.757V35.9041C103.202 36.7982 102.469 37.4813 101.558 37.9537C100.647 38.426 99.6189 38.6621 98.4737 38.6621C97.1898 38.6621 96.0272 38.3754 94.9862 37.8018C93.9451 37.2283 93.1296 36.427 92.5397 35.398C91.9497 34.3691 91.6548 33.1967 91.6548 31.8809C91.6548 30.5652 91.9497 29.3928 92.5397 28.3638C93.1296 27.3348 93.9451 26.5378 94.9862 25.9726C96.0272 25.4075 97.1898 25.125 98.4737 25.125C99.5842 25.125 100.586 25.3485 101.48 25.7955C102.373 26.2426 103.106 26.8962 103.679 27.7565V19.7607H105.527ZM98.6299 37.0681C99.5842 37.0681 100.447 36.853 101.22 36.4228C101.992 35.9927 102.599 35.3812 103.041 34.5884C103.484 33.7955 103.705 32.893 103.705 31.8809C103.705 30.8688 103.484 29.9663 103.041 29.1735C102.599 28.3807 101.992 27.7692 101.22 27.339C100.447 26.9089 99.5842 26.6938 98.6299 26.6938C97.6582 26.6938 96.7863 26.9089 96.0142 27.339C95.2421 27.7692 94.6348 28.3807 94.1924 29.1735C93.7499 29.9663 93.5287 30.8688 93.5287 31.8809C93.5287 32.893 93.7499 33.7955 94.1924 34.5884C94.6348 35.3812 95.2421 35.9927 96.0142 36.4228C96.7863 36.853 97.6582 37.0681 98.6299 37.0681ZM114.003 38.6621C112.892 38.6621 111.83 38.5061 110.815 38.194C109.8 37.882 109.006 37.4898 108.433 37.0174L109.266 35.6005C109.839 36.0391 110.559 36.3975 111.426 36.6759C112.294 36.9542 113.196 37.0934 114.133 37.0934C115.382 37.0934 116.306 36.9036 116.905 36.524C117.503 36.1445 117.803 35.6089 117.803 34.9173C117.803 34.4281 117.638 34.0443 117.308 33.766C116.979 33.4877 116.562 33.2768 116.059 33.1334C115.556 32.99 114.888 32.8509 114.055 32.7159C112.945 32.5135 112.051 32.3069 111.374 32.096C110.698 31.8851 110.121 31.5267 109.643 31.0206C109.166 30.5146 108.928 29.8145 108.928 28.9205C108.928 27.8071 109.405 26.8962 110.359 26.1877C111.314 25.4792 112.641 25.125 114.341 25.125C115.226 25.125 116.111 25.2389 116.996 25.4666C117.881 25.6943 118.61 25.9937 119.182 26.3648L118.375 27.8071C117.248 27.048 115.903 26.6685 114.341 26.6685C113.161 26.6685 112.272 26.8709 111.674 27.2758C111.075 27.6806 110.776 28.212 110.776 28.8699C110.776 29.3759 110.945 29.7808 111.283 30.0844C111.621 30.388 112.042 30.6115 112.545 30.7549C113.049 30.8983 113.743 31.0459 114.628 31.1977C115.721 31.4002 116.597 31.6026 117.256 31.805C117.916 32.0074 118.479 32.3532 118.948 32.8424C119.416 33.3316 119.651 34.0064 119.651 34.8667C119.651 36.0306 119.152 36.9542 118.154 37.6374C117.156 38.3206 115.773 38.6621 114.003 38.6621ZM128.931 37.7259C128.584 38.0296 128.159 38.2615 127.656 38.4218C127.153 38.582 126.624 38.6621 126.068 38.6621C124.784 38.6621 123.795 38.3248 123.101 37.65C122.407 36.9753 122.06 36.0222 122.06 34.7908V22.3164H123.908V25.2262H128.046V26.7444H123.908V34.6896C123.908 35.4824 124.108 36.0854 124.507 36.4987C124.906 36.912 125.487 37.1187 126.251 37.1187C127.083 37.1187 127.76 36.8909 128.281 36.4355L128.931 37.7259ZM144.781 25.2262V38.5356H143.012V35.9041C142.456 36.7982 141.723 37.4813 140.812 37.9537C139.901 38.426 138.873 38.6621 137.728 38.6621C136.444 38.6621 135.282 38.3754 134.241 37.8018C133.2 37.2283 132.384 36.427 131.794 35.398C131.204 34.3691 130.909 33.1967 130.909 31.8809C130.909 30.5652 131.204 29.3928 131.794 28.3638C132.384 27.3348 133.2 26.5378 134.241 25.9726C135.282 25.4075 136.444 25.125 137.728 25.125C138.839 25.125 139.841 25.3485 140.734 25.7955C141.628 26.2426 142.361 26.8962 142.934 27.7565V25.2262H144.781ZM137.884 37.0681C138.839 37.0681 139.702 36.853 140.474 36.4228C141.246 35.9927 141.853 35.3812 142.296 34.5884C142.738 33.7955 142.96 32.893 142.96 31.8809C142.96 30.8688 142.738 29.9663 142.296 29.1735C141.853 28.3807 141.246 27.7692 140.474 27.339C139.702 26.9089 138.839 26.6938 137.884 26.6938C136.913 26.6938 136.041 26.9089 135.269 27.339C134.497 27.7692 133.889 28.3807 133.447 29.1735C133.004 29.9663 132.783 30.8688 132.783 31.8809C132.783 32.893 133.004 33.7955 133.447 34.5884C133.889 35.3812 134.497 35.9927 135.269 36.4228C136.041 36.853 136.913 37.0681 137.884 37.0681ZM149.88 27.8324C150.314 26.9384 150.961 26.2636 151.819 25.8082C152.678 25.3527 153.741 25.125 155.008 25.125V26.8709L154.565 26.8456C153.125 26.8456 151.997 27.2758 151.182 28.1361C150.366 28.9964 149.959 30.2025 149.959 31.7544V38.5356H148.111V25.2262H149.88V27.8324ZM162.217 38.6621C161.107 38.6621 160.044 38.5061 159.029 38.194C158.014 37.882 157.22 37.4898 156.647 37.0174L157.48 35.6005C158.053 36.0391 158.773 36.3975 159.64 36.6759C160.508 36.9542 161.41 37.0934 162.347 37.0934C163.596 37.0934 164.52 36.9036 165.119 36.524C165.718 36.1445 166.017 35.6089 166.017 34.9173C166.017 34.4281 165.852 34.0443 165.522 33.766C165.193 33.4877 164.776 33.2768 164.273 33.1334C163.77 32.99 163.102 32.8509 162.269 32.7159C161.159 32.5135 160.265 32.3069 159.588 32.096C158.912 31.8851 158.335 31.5267 157.858 31.0206C157.38 30.5146 157.142 29.8145 157.142 28.9205C157.142 27.8071 157.619 26.8962 158.573 26.1877C159.528 25.4792 160.855 25.125 162.555 25.125C163.44 25.125 164.325 25.2389 165.21 25.4666C166.095 25.6943 166.824 25.9937 167.396 26.3648L166.59 27.8071C165.462 27.048 164.117 26.6685 162.555 26.6685C161.376 26.6685 160.486 26.8709 159.888 27.2758C159.289 27.6806 158.99 28.212 158.99 28.8699C158.99 29.3759 159.159 29.7808 159.497 30.0844C159.836 30.388 160.256 30.6115 160.76 30.7549C161.263 30.8983 161.957 31.0459 162.842 31.1977C163.935 31.4002 164.811 31.6026 165.47 31.805C166.13 32.0074 166.694 32.3532 167.162 32.8424C167.631 33.3316 167.865 34.0064 167.865 34.8667C167.865 36.0306 167.366 36.9542 166.368 37.6374C165.371 38.3206 163.987 38.6621 162.217 38.6621ZM73.9045 32.3413H62.6926C62.7945 33.746 63.3296 34.8808 64.2979 35.7458C65.2662 36.6109 66.4893 37.0434 67.9673 37.0434C68.7997 37.0434 69.5641 36.8935 70.2606 36.5938C70.9571 36.294 71.5602 35.8529 72.0698 35.2705L73.089 36.4524C72.4945 37.1719 71.7513 37.72 70.8594 38.0969C69.9676 38.4737 68.9865 38.6621 67.9163 38.6621C66.5403 38.6621 65.3215 38.3667 64.2597 37.7757C63.198 37.1847 62.3698 36.3668 61.7753 35.3219C61.1807 34.277 60.8834 33.095 60.8834 31.7761C60.8834 30.4571 61.168 29.2752 61.7371 28.2302C62.3061 27.1853 63.0876 26.3717 64.0814 25.7893C65.0751 25.2069 66.1921 24.9157 67.4322 24.9157C68.6723 24.9157 69.7849 25.2069 70.7702 25.7893C71.7555 26.3717 72.5285 27.1811 73.089 28.2174C73.6496 29.2537 73.9299 30.4399 73.9299 31.7761L73.9045 32.3413ZM67.4322 26.483C66.1411 26.483 65.0581 26.8984 64.1833 27.7292C63.3084 28.56 62.8115 29.6434 62.6926 30.9795H72.1972C72.0783 29.6434 71.5814 28.56 70.7065 27.7292C69.8317 26.8984 68.7402 26.483 67.4322 26.483ZM89.5603 32.3413H78.3484C78.4503 33.746 78.9855 34.8808 79.9538 35.7458C80.9221 36.6109 82.1452 37.0434 83.6231 37.0434C84.4555 37.0434 85.2199 36.8935 85.9164 36.5938C86.6129 36.294 87.216 35.8529 87.7256 35.2705L88.7449 36.4524C88.1503 37.1719 87.4071 37.72 86.5152 38.0969C85.6234 38.4737 84.6424 38.6621 83.5721 38.6621C82.1961 38.6621 80.9773 38.3667 79.9155 37.7757C78.8538 37.1847 78.0257 36.3668 77.4311 35.3219C76.8365 34.277 76.5392 33.095 76.5392 31.7761C76.5392 30.4571 76.8238 29.2752 77.3929 28.2302C77.962 27.1853 78.7434 26.3717 79.7372 25.7893C80.7309 25.2069 81.8479 24.9157 83.088 24.9157C84.3281 24.9157 85.4408 25.2069 86.426 25.7893C87.4113 26.3717 88.1843 27.1811 88.7449 28.2174C89.3055 29.2537 89.5858 30.4399 89.5858 31.7761L89.5603 32.3413ZM83.088 26.483C81.7969 26.483 80.714 26.8984 79.8391 27.7292C78.9642 28.56 78.4673 29.6434 78.3484 30.9795H87.853C87.7341 29.6434 87.2372 28.56 86.3623 27.7292C85.4875 26.8984 84.396 26.483 83.088 26.483Z" fill="white"/>
<mask id="mask0" mask-type="alpha" maskUnits="userSpaceOnUse" x="21" y="21" width="20" height="19">
<path d="M29.1027 21.2212C28.8654 21.2212 28.675 21.4149 28.6829 21.6522C28.7327 23.0788 28.9286 25.4247 29.2709 28.6913C27.8962 27.9069 25.7267 26.9855 22.7626 25.9265C22.5404 25.8473 22.293 25.9672 22.2202 26.1923L21.1125 29.6178C21.0384 29.8475 21.1698 30.0936 21.4029 30.1544C23.592 30.7296 25.8954 31.2523 28.313 31.721C27.3555 32.6035 25.7928 34.3772 23.6238 37.0435C23.4715 37.2309 23.5066 37.5105 23.7025 37.6514L26.5394 39.6988C26.7256 39.833 26.9859 39.7948 27.1207 39.6091C28.182 38.1465 29.3981 36.1074 30.7687 33.491C32.2367 36.0239 33.5236 38.0618 34.6288 39.6058C34.7623 39.7936 35.0222 39.8338 35.2101 39.7009L38.0976 37.6518C38.296 37.5113 38.332 37.2279 38.1775 37.0397C36.0998 34.508 34.4785 32.7351 33.3139 31.721C35.6206 31.4561 37.9721 30.9396 40.3683 30.1724C40.5897 30.1016 40.7127 29.8609 40.6412 29.6396L39.5242 26.1865C39.4523 25.9634 39.2091 25.8423 38.9873 25.9169C36.4973 26.76 34.2764 27.6747 32.3254 28.6611C32.6962 25.8947 32.9209 23.5588 32.9992 21.6538C33.0088 21.4161 32.8171 21.2212 32.579 21.2212H29.1027Z" fill="white"/>
</mask>
<g mask="url(#mask0)">
<path d="M29.1027 21.2212C28.8654 21.2212 28.675 21.4149 28.6829 21.6522C28.7327 23.0788 28.9286 25.4247 29.2709 28.6913C27.8962 27.9069 25.7267 26.9855 22.7626 25.9265C22.5404 25.8473 22.293 25.9672 22.2202 26.1923L21.1125 29.6178C21.0384 29.8475 21.1698 30.0936 21.4029 30.1544C23.592 30.7296 25.8954 31.2523 28.313 31.721C27.3555 32.6035 25.7928 34.3772 23.6238 37.0435C23.4715 37.2309 23.5066 37.5105 23.7025 37.6514L26.5394 39.6988C26.7256 39.833 26.9859 39.7948 27.1207 39.6091C28.182 38.1465 29.3981 36.1074 30.7687 33.491C32.2367 36.0239 33.5236 38.0618 34.6288 39.6058C34.7623 39.7936 35.0222 39.8338 35.2101 39.7009L38.0976 37.6518C38.296 37.5113 38.332 37.2279 38.1775 37.0397C36.0998 34.508 34.4785 32.7351 33.3139 31.721C35.6206 31.4561 37.9721 30.9396 40.3683 30.1724C40.5897 30.1016 40.7127 29.8609 40.6412 29.6396L39.5242 26.1865C39.4523 25.9634 39.2091 25.8423 38.9873 25.9169C36.4973 26.76 34.2764 27.6747 32.3254 28.6611C32.6962 25.8947 32.9209 23.5588 32.9992 21.6538C33.0088 21.4161 32.8171 21.2212 32.579 21.2212H29.1027Z" fill="#FF5100"/>
<path d="M42.7088 18.5146H19.1348V41.8011H42.7088V18.5146Z" fill="white"/>
</g>
</svg>
