<svg width="166" height="75" viewBox="0 0 166 75" fill="none" xmlns="http://www.w3.org/2000/svg">
<g clip-path="url(#clip0)">
<path d="M111.584 26.3476H120.722V72.8546H111.475L109.861 69.772L109.577 69.2302L109.103 69.6159C105.326 72.6847 100.562 74.4701 95.1759 74.4701C81.0133 74.4701 70.9082 64.1152 70.9082 49.6011C70.9082 35.1507 81.0094 24.9116 95.1759 24.9116C100.619 24.9116 105.472 26.7555 109.277 29.9121L109.782 30.3306L110.052 29.7334L111.584 26.3476ZM82.6934 49.631C82.6934 57.2834 88.2564 63.0548 95.8003 63.0548C103.343 63.0548 108.907 57.3141 108.907 49.631C108.907 42.0369 103.343 36.267 95.8003 36.267C88.1977 36.267 82.6934 42.0077 82.6934 49.631Z" fill="black" stroke="white"/>
<path d="M66.9887 4.51758V24.5315V41.3445H67.0184C66.9887 59.9524 52.0032 75.0002 33.5092 75.0002C15.0152 75.0002 0.0297331 59.9224 0 41.3145H16.7992C16.7992 50.5886 24.292 58.1275 33.5092 58.1275C42.7265 58.1275 50.2192 50.5886 50.2192 41.3145V21.4202H33.42V4.51758H66.9887Z" fill="white"/>
<path d="M39.8501 40.428C39.6633 42.3165 39.9887 43.8211 40.6065 45.0108C41.2226 46.1974 42.1139 47.0413 43.016 47.6364C43.9163 48.2304 44.835 48.582 45.5249 48.7854C45.8709 48.8875 46.1623 48.9531 46.3691 48.9934C46.4726 49.0136 46.5552 49.0276 46.6132 49.0366C46.6422 49.0411 46.665 49.0444 46.6813 49.0466L46.7006 49.0492L46.7065 49.05L46.7085 49.0502L46.7092 49.0503C46.7095 49.0504 46.7098 49.0504 46.7701 48.5541L46.7098 49.0504L48.6047 49.2808L47.0669 48.1516L47.0666 48.1515L47.0664 48.1513L47.0662 48.1511L47.066 48.151L47.0602 48.1466C47.0542 48.1421 47.0444 48.1345 47.031 48.1239C47.0042 48.1028 46.9633 48.0698 46.9111 48.0252C46.8066 47.936 46.6573 47.8011 46.4852 47.6236C46.1398 47.2673 45.7093 46.7463 45.3618 46.0852C44.6778 44.7836 44.2983 42.9164 45.5996 40.6034C46.3329 39.309 47.7656 38.6971 49.3087 38.6163C50.861 38.5351 52.3751 39.0019 53.1576 39.6836C53.9925 40.4405 56.0848 42.6525 55.5512 46.6935C55.1312 49.8178 52.8929 52.5844 49.4901 53.5471C47.9135 53.9795 46.5945 54.061 45.3162 53.8707C44.0303 53.6793 42.7586 53.2091 41.2771 52.5007L41.2751 52.4997C38.9108 51.382 34.7901 47.9497 34.3046 42.3486C33.9577 38.3053 34.9983 34.5197 37.4928 31.4906L37.4931 31.4903C40.1155 28.3008 43.4448 26.5105 47.5366 26.0756L47.5378 26.0755C51.8112 25.6106 55.8484 26.7388 60.2129 28.6971L61.4867 29.2686L60.8654 28.0184C60.859 28.0055 60.8511 27.9898 60.8418 27.9712C60.4281 27.1468 57.2401 20.7933 58.8813 13.1641C60.2333 8.37275 62.942 4.43449 66.4886 1.0486V24.5313V41.3442V41.8442H66.513C66.3751 49.4924 63.6817 56.5197 59.2261 62.0888C62.5621 50.0963 61.655 43.7471 60.8717 40.7692C60.0534 37.6341 57.6727 35.2303 54.8444 33.8074L54.8426 33.8065C51.7057 32.2441 48.4417 32.1867 45.2056 33.3341L45.2019 33.3354C42.9019 34.1711 40.1981 36.8637 39.8501 40.428ZM39.8501 40.428C39.8502 40.4278 39.8502 40.4276 39.8502 40.4274L40.3478 40.4767L39.8501 40.4281C39.8501 40.4281 39.8501 40.428 39.8501 40.428Z" fill="black" stroke="white"/>
<path d="M164.959 4.63721H73.2031V21.3903H164.959V4.63721Z" fill="#9E352C"/>
<path d="M81.7367 10.2314V15.766H80.369L77.9606 12.7743V15.766H76.355V10.2314H77.8119L80.1311 13.1333V10.2314H81.7367Z" fill="white"/>
<path d="M86.3154 13.6419V10.2314H88.0102V13.612C88.0102 14.1505 88.3968 14.5095 88.9617 14.5095C89.5266 14.5095 89.9132 14.1505 89.9132 13.612V10.2314H91.6079V13.6419C91.6079 15.018 90.5078 15.9155 88.9617 15.9155C87.4156 15.9155 86.3154 14.9881 86.3154 13.6419Z" fill="white"/>
<path d="M98.4765 14.0906H97.8819V15.7959H96.2168V10.2314H98.8333C100.142 10.2314 101.093 11.0392 101.093 12.2059C101.093 12.894 100.736 13.4325 100.142 13.7616L101.361 15.7659H99.4874L98.4765 14.0906ZM97.8521 12.8042H98.6252C99.1009 12.8042 99.3685 12.535 99.3685 12.2059C99.3685 11.8768 99.1009 11.6076 98.6252 11.6076H97.8521V12.8042Z" fill="white"/>
<path d="M105.315 12.9238H108.496V14.2701H105.315V12.9238Z" fill="white"/>
<path d="M112.719 14.0008H114.443C114.443 14.3897 114.77 14.5991 115.157 14.5991C115.514 14.5991 115.841 14.4196 115.841 14.1205C115.841 13.7615 115.365 13.6717 114.8 13.5521C113.938 13.3426 112.808 13.1033 112.808 11.8468C112.808 10.7698 113.7 10.1416 115.127 10.1416C116.584 10.1416 117.417 10.8297 117.417 11.9366H115.752C115.752 11.5776 115.454 11.428 115.127 11.428C114.83 11.428 114.532 11.5477 114.532 11.8169C114.532 12.146 114.978 12.2357 115.573 12.3554C116.465 12.5648 117.625 12.8341 117.625 14.0905C117.625 15.2872 116.614 15.9154 115.187 15.9154C113.67 15.9154 112.719 15.1974 112.719 14.0008Z" fill="white"/>
<path d="M121.876 13.6419V10.2314H123.571V13.612C123.571 14.1505 123.958 14.5095 124.523 14.5095C125.088 14.5095 125.474 14.1505 125.474 13.612V10.2314H127.169V13.6419C127.169 15.018 126.069 15.9155 124.523 15.9155C122.977 15.9155 121.876 14.9881 121.876 13.6419Z" fill="white"/>
<path d="M135.613 14.3898V15.7959H131.748V10.2314H133.442V14.3599H135.613V14.3898Z" fill="white"/>
<path d="M143.641 11.6076H142.006V15.766H140.341V11.6076H138.706V10.2314H143.671V11.6076H143.641Z" fill="white"/>
<path d="M151.193 14.8685H149.052L148.725 15.766H146.941L149.32 10.2314H150.955L153.393 15.766H151.55L151.193 14.8685ZM150.123 11.9666L149.469 13.6718H150.807L150.123 11.9666Z" fill="white"/>
<path d="M161.838 10.2314V15.766H160.47L158.062 12.7743V15.766H156.456V10.2314H157.913L160.232 13.1333V10.2314H161.838Z" fill="white"/>
<path d="M134.548 69.8544V72.8845H125.111V59.1565L135.069 55.2588C135.837 59.114 139.232 62.0077 143.284 62.0077C147.903 62.0077 151.663 58.2521 151.663 53.5799C151.663 51.9712 151.229 50.4791 150.463 49.213L161.304 44.9603C163.943 48.0694 165.53 52.1254 165.53 56.5416C165.53 66.4399 157.544 74.47 147.714 74.47C142.943 74.47 138.606 72.5796 135.394 69.4938L134.548 68.6805V69.8544Z" fill="black" stroke="white"/>
<path d="M154.313 42.7917C153.403 39.4747 150.369 37.0449 146.792 37.0449C142.469 37.0449 138.978 40.5624 138.978 44.9043C138.978 46.1898 139.281 47.4085 139.83 48.4779L128.739 52.8254C126.621 49.9115 125.379 46.3318 125.379 42.4511C125.379 32.7025 133.245 24.792 142.927 24.792C147.205 24.792 151.136 26.3332 154.171 28.8924L154.993 29.5859V28.5102V26.3476H164.429V38.8195L154.313 42.7917Z" fill="black" stroke="white"/>
</g>
<defs>
<clipPath id="clip0">
<rect width="166" height="75" fill="white"/>
</clipPath>
</defs>
</svg>
