<svg version="1.1"
     baseProfile="full"
     xmlns="http://www.w3.org/2000/svg"
>

  <symbol id="burger" viewBox="0 0 30 30" fill="none">
    <rect y="5" width="30" height="3" fill="#FF7433"/>
    <rect y="13" width="30" height="3" fill="#FF7433"/>
    <rect y="21" width="24" height="3" fill="#FF7433"/>
  </symbol>

  <symbol id="fb" viewBox="0 0 30 30" fill="none">
    <path d="M30 15C30 6.71481 23.2852 -3.05176e-05 15 -3.05176e-05C6.71484 -3.05176e-05 0 6.71481 0 15C0 23.2851 6.71484 30 15 30C15.0879 30 15.1758 30 15.2637 29.9941V18.3222H12.041V14.5664H15.2637V11.8008C15.2637 8.59567 17.2207 6.84958 20.0801 6.84958C21.4512 6.84958 22.6289 6.94919 22.9688 6.99606V10.3476H21C19.4473 10.3476 19.1426 11.0859 19.1426 12.1699V14.5605H22.8633L22.377 18.3164H19.1426V29.4199C25.4121 27.6211 30 21.8496 30 15Z" fill="#FF7433"/>
  </symbol>

  <symbol id="inst" viewBox="0 0 30 30" fill="none">
    <path d="M17.8711 14.9999C17.8711 16.5856 16.5857 17.871 15 17.871C13.4143 17.871 12.1289 16.5856 12.1289 14.9999C12.1289 13.4142 13.4143 12.1288 15 12.1288C16.5857 12.1288 17.8711 13.4142 17.8711 14.9999Z" fill="#FF7433"/>
    <path d="M21.7144 9.92015C21.5764 9.54616 21.3562 9.20764 21.0701 8.92978C20.7923 8.64368 20.454 8.42349 20.0797 8.28548C19.7762 8.1676 19.3203 8.0273 18.4805 7.98907C17.5721 7.94765 17.2997 7.93872 14.9999 7.93872C12.6999 7.93872 12.4275 7.94742 11.5193 7.98885C10.6796 8.0273 10.2234 8.1676 9.92014 8.28548C9.54591 8.42349 9.2074 8.64368 8.92976 8.92978C8.64366 9.20764 8.42348 9.54593 8.28523 9.92015C8.16736 10.2236 8.02705 10.6798 7.98883 11.5196C7.9474 12.4278 7.93848 12.7001 7.93848 15.0002C7.93848 17.3 7.9474 17.5724 7.98883 18.4808C8.02705 19.3206 8.16736 19.7765 8.28523 20.08C8.42348 20.4542 8.64343 20.7925 8.92953 21.0704C9.2074 21.3565 9.54568 21.5766 9.91991 21.7147C10.2234 21.8328 10.6796 21.9731 11.5193 22.0113C12.4275 22.0527 12.6997 22.0614 14.9997 22.0614C17.3 22.0614 17.5723 22.0527 18.4803 22.0113C19.3201 21.9731 19.7762 21.8328 20.0797 21.7147C20.8309 21.4249 21.4247 20.8312 21.7144 20.08C21.8323 19.7765 21.9726 19.3206 22.011 18.4808C22.0525 17.5724 22.0612 17.3 22.0612 15.0002C22.0612 12.7001 22.0525 12.4278 22.011 11.5196C21.9728 10.6798 21.8325 10.2236 21.7144 9.92015ZM14.9999 19.4229C12.5571 19.4229 10.5768 17.4428 10.5768 15C10.5768 12.5571 12.5571 10.577 14.9999 10.577C17.4426 10.577 19.4229 12.5571 19.4229 15C19.4229 17.4428 17.4426 19.4229 14.9999 19.4229ZM19.5977 11.4358C19.0269 11.4358 18.5641 10.973 18.5641 10.4022C18.5641 9.83134 19.0269 9.36855 19.5977 9.36855C20.1685 9.36855 20.6313 9.83134 20.6313 10.4022C20.6311 10.973 20.1685 11.4358 19.5977 11.4358Z" fill="#FF7433"/>
    <path d="M15 -3.05176e-05C6.717 -3.05176e-05 0 6.71696 0 15C0 23.283 6.717 30 15 30C23.283 30 30 23.283 30 15C30 6.71696 23.283 -3.05176e-05 15 -3.05176e-05ZM23.5613 18.5511C23.5197 19.468 23.3739 20.094 23.161 20.6419C22.7135 21.7989 21.7989 22.7135 20.6419 23.161C20.0942 23.3738 19.468 23.5194 18.5513 23.5613C17.6328 23.6032 17.3394 23.6133 15.0002 23.6133C12.6608 23.6133 12.3676 23.6032 11.4489 23.5613C10.5322 23.5194 9.90601 23.3738 9.35829 23.161C8.78334 22.9447 8.26286 22.6057 7.83257 22.1674C7.39449 21.7373 7.05551 21.2166 6.83922 20.6419C6.62636 20.0942 6.48056 19.468 6.4389 18.5513C6.39656 17.6326 6.38672 17.3391 6.38672 15C6.38672 12.6608 6.39656 12.3674 6.43867 11.4489C6.48033 10.532 6.6259 9.90598 6.83876 9.35803C7.05505 8.78331 7.39426 8.2626 7.83257 7.83253C8.26263 7.39423 8.78334 7.05525 9.35806 6.83896C9.90601 6.6261 10.532 6.48053 11.4489 6.43864C12.3674 6.39676 12.6608 6.38669 15 6.38669C17.3392 6.38669 17.6326 6.39676 18.5511 6.43887C19.468 6.48053 20.094 6.6261 20.6419 6.83873C21.2167 7.05502 21.7374 7.39423 22.1677 7.83253C22.6057 8.26283 22.9449 8.78331 23.161 9.35803C23.3741 9.90598 23.5197 10.532 23.5616 11.4489C23.6034 12.3674 23.6133 12.6608 23.6133 15C23.6133 17.3391 23.6034 17.6326 23.5613 18.5511Z" fill="#FF7433"/>
  </symbol>

  <symbol id="tg" viewBox="0 0 30 30" fill="none">
    <path fill-rule="evenodd" clip-rule="evenodd" d="M15 30C23.2843 30 30 23.2842 30 15C30 6.7157 23.2843 -3.05176e-05 15 -3.05176e-05C6.71573 -3.05176e-05 0 6.7157 0 15C0 23.2842 6.71573 30 15 30ZM13.0631 20.6963L13.3211 17.0667L19.9687 11.0978C20.2579 10.8417 19.9063 10.7 19.5195 10.9561L11.3016 16.0982L7.76362 14.9978C6.99402 14.7592 6.97972 14.2327 7.92417 13.8661L21.7627 8.56797C22.4036 8.32942 22.9639 8.70967 22.7552 9.68207L22.7546 9.68272L20.4003 20.7145C20.2228 21.4932 19.7594 21.6863 19.1016 21.3197L15.5149 18.693L13.7839 20.3473C13.5922 20.5377 13.4323 20.6963 13.0631 20.6963Z" fill="#FF7433"/>
  </symbol>

  <symbol id="list-icon" viewBox="0 0 85 30" fill="none">
    <path opacity="0.5" d="M85 15C85 23.2843 78.2843 30 70 30C61.7157 30 55 23.2843 55 15C55 6.71573 61.7157 0 70 0C78.2843 0 85 6.71573 85 15ZM56.1323 15C56.1323 22.6589 62.3411 28.8677 70 28.8677C77.6589 28.8677 83.8677 22.6589 83.8677 15C83.8677 7.34107 77.6589 1.13228 70 1.13228C62.3411 1.13228 56.1323 7.34107 56.1323 15Z" fill="#BFC2C9"/>
    <path d="M70 0C71.9992 2.38398e-08 73.9782 0.399628 75.8207 1.1754C77.6632 1.95116 79.332 3.08742 80.7291 4.51738C82.1262 5.94734 83.2234 7.64214 83.9561 9.50219C84.6889 11.3622 85.0424 13.35 84.9959 15.3486C84.9495 17.3472 84.504 19.3164 83.6856 21.1404C82.8672 22.9644 81.6925 24.6064 80.2304 25.9699C78.7684 27.3334 77.0485 28.3908 75.172 29.0802C73.2954 29.7695 71.3 30.0767 69.303 29.9838L69.3556 28.8527C71.2018 28.9386 73.0466 28.6546 74.7816 28.0173C76.5165 27.38 78.1065 26.4024 79.4582 25.1418C80.8099 23.8812 81.8959 22.3632 82.6525 20.6769C83.4091 18.9906 83.821 17.1701 83.864 15.3223C83.9069 13.4745 83.5801 11.6368 82.9027 9.91719C82.2252 8.19755 81.2109 6.63068 79.9193 5.30866C78.6276 3.98664 77.0847 2.93616 75.3813 2.21895C73.6779 1.50174 71.8483 1.13228 70 1.13228L70 0Z" fill="#FF7433"/>
    <line opacity="0.6" x1="70" y1="15.25" x2="2.18557e-08" y2="15.25" stroke="#BFC2C9" stroke-width="0.5"/>
    <circle cx="72" cy="12" r="1" fill="#FF7433"/>
    <circle cx="72" cy="18" r="1" fill="#FF7433"/>
    <circle cx="75" cy="15" r="1" fill="#FF7433"/>
  </symbol>

  <symbol id="count-line" viewBox="0 0 22 30" fill="none">
    <line y1="-0.5" x2="35.6002" y2="-0.5" transform="matrix(-0.580019 0.814603 -0.823624 -0.567136 21.001 0)" stroke="white" stroke-opacity="0.5"/>
  </symbol>

  <symbol id="square-dot" viewBox="0 0 24 24" fill="none">
    <path fill-rule="evenodd" clip-rule="evenodd" d="M1 0L7 0V1H1V7H0L0 1L0 0L1 0ZM0 17L0 23L0 24H1H7V23H1V17H0ZM23 17V23H17V24H23H24V23V17H23ZM24 7V1V0L23 0L17 0V1H23V7H24Z" fill="#FF7433"/>
    <circle cx="12" cy="12" r="2" fill="#FF7433"/>
  </symbol>

  <symbol id="map-pin" viewBox="0 0 19 18" fill="none">
    <path d="M9.49998 0C5.70573 0 2.6189 2.92437 2.6189 6.51888C2.6189 10.9798 8.77679 17.5287 9.03897 17.8053C9.28522 18.0651 9.71517 18.0647 9.96099 17.8053C10.2232 17.5287 16.3811 10.9798 16.3811 6.51888C16.381 2.92437 13.2942 0 9.49998 0ZM9.49998 9.79871C7.591 9.79871 6.03797 8.32739 6.03797 6.51888C6.03797 4.71037 7.59103 3.23909 9.49998 3.23909C11.4089 3.23909 12.9619 4.71041 12.9619 6.51892C12.9619 8.32743 11.4089 9.79871 9.49998 9.79871Z" fill="#FF7433"/>
  </symbol>
</svg>
