<svg width="389" height="389" viewBox="0 0 389 389" fill="none" xmlns="http://www.w3.org/2000/svg">
<g filter="url(#filter0_b)">
<rect x="1" y="1" width="387" height="387" fill="url(#paint0_linear)"/>
<rect x="1" y="1" width="387" height="387" stroke="url(#paint1_linear)" stroke-opacity="0.6"/>
</g>
<g clip-path="url(#clip0)">
<path d="M225.967 182.416H235.945V232.723H225.85L224.088 229.372L223.805 228.832L223.331 229.216C219.229 232.536 214.053 234.468 208.203 234.468C192.819 234.468 181.846 223.264 181.846 207.569C181.846 191.943 192.816 180.865 208.203 180.865C214.115 180.865 219.387 182.86 223.521 186.275L224.024 186.691L224.295 186.096L225.967 182.416ZM194.71 207.602C194.71 215.847 200.726 222.059 208.88 222.059C217.033 222.059 223.05 215.88 223.05 207.602C223.05 199.419 217.032 193.209 208.88 193.209C200.662 193.209 194.71 199.388 194.71 207.602Z" fill="black" stroke="white"/>
<path d="M177.638 158.879V180.494V198.652H177.671C177.638 218.748 161.389 235 141.335 235C121.282 235 105.032 218.716 105 198.62H123.216C123.216 208.636 131.341 216.778 141.335 216.778C151.33 216.778 159.455 208.636 159.455 198.62V177.134H141.239V158.879H177.638Z" fill="white"/>
<path d="M149.739 210.736L149.737 210.736C147.164 209.524 142.684 205.806 142.156 199.739C141.779 195.364 142.91 191.266 145.622 187.985L145.622 187.985C148.472 184.532 152.093 182.593 156.541 182.122L156.542 182.122C161.187 181.619 165.573 182.84 170.309 184.957L171.584 185.526L170.961 184.277C170.954 184.263 170.945 184.246 170.935 184.226C170.485 183.334 167.023 176.461 168.806 168.208C170.284 162.992 173.253 158.712 177.138 155.036V180.494V198.652V199.152H177.165C177.023 207.509 174.048 215.183 169.126 221.239C172.806 208.167 171.816 201.265 170.965 198.04C170.081 194.668 167.509 192.08 164.45 190.547L164.448 190.547C161.059 188.865 157.532 188.803 154.033 190.038L154.029 190.04C151.549 190.937 148.629 193.832 148.253 197.665C148.051 199.699 148.403 201.316 149.069 202.594C149.733 203.868 150.694 204.775 151.668 205.414C152.64 206.053 153.632 206.431 154.377 206.65C154.75 206.76 155.065 206.83 155.288 206.874C155.4 206.895 155.489 206.91 155.551 206.92C155.582 206.925 155.607 206.928 155.624 206.931L155.645 206.934L155.651 206.934L155.653 206.935L155.654 206.935C155.654 206.935 155.655 206.935 155.715 206.438L155.655 206.935L157.555 207.165L156.011 206.035L156.01 206.035L156.01 206.035L156.01 206.035L156.01 206.035L156.003 206.03L155.998 206.026C155.991 206.021 155.982 206.014 155.971 206.005C155.941 205.982 155.896 205.946 155.839 205.897C155.725 205.8 155.562 205.653 155.375 205.461C154.998 205.074 154.529 204.508 154.15 203.79C153.403 202.374 152.99 200.344 154.409 197.832C155.213 196.418 156.783 195.753 158.465 195.666C160.156 195.578 161.811 196.083 162.67 196.829C163.58 197.651 165.859 200.051 165.278 204.433C164.821 207.822 162.383 210.824 158.676 211.869C156.961 212.338 155.525 212.426 154.132 212.22C152.731 212.012 151.348 211.502 149.739 210.736Z" fill="black" stroke="white"/>
<path d="M283.872 159.008H184.377V177.101H283.872V159.008Z" fill="#9E352C"/>
<path d="M193.63 165.049V171.027H192.147L189.535 167.796V171.027H187.794V165.049H189.374L191.889 168.183V165.049H193.63Z" fill="white"/>
<path d="M198.595 168.733V165.049H200.433V168.7C200.433 169.282 200.852 169.67 201.464 169.67C202.077 169.67 202.496 169.282 202.496 168.7V165.049H204.334V168.733C204.334 170.219 203.141 171.188 201.464 171.188C199.788 171.188 198.595 170.187 198.595 168.733Z" fill="white"/>
<path d="M211.781 169.217H211.137V171.059H209.331V165.049H212.168C213.587 165.049 214.619 165.922 214.619 167.182C214.619 167.925 214.232 168.506 213.587 168.862L214.909 171.027H212.878L211.781 169.217ZM211.104 167.828H211.943C212.458 167.828 212.749 167.537 212.749 167.182C212.749 166.826 212.458 166.536 211.943 166.536H211.104V167.828Z" fill="white"/>
<path d="M219.197 167.958H222.646V169.411H219.197V167.958Z" fill="white"/>
<path d="M227.225 169.121H229.095C229.095 169.541 229.449 169.767 229.868 169.767C230.255 169.767 230.61 169.573 230.61 169.25C230.61 168.862 230.094 168.765 229.481 168.636C228.546 168.41 227.321 168.151 227.321 166.794C227.321 165.631 228.289 164.953 229.836 164.953C231.416 164.953 232.319 165.696 232.319 166.891H230.513C230.513 166.503 230.191 166.342 229.836 166.342C229.514 166.342 229.191 166.471 229.191 166.762C229.191 167.117 229.675 167.214 230.32 167.344C231.287 167.57 232.544 167.86 232.544 169.217C232.544 170.51 231.448 171.188 229.901 171.188C228.256 171.188 227.225 170.413 227.225 169.121Z" fill="white"/>
<path d="M237.155 168.733V165.049H238.993V168.7C238.993 169.282 239.412 169.67 240.024 169.67C240.637 169.67 241.056 169.282 241.056 168.7V165.049H242.894V168.733C242.894 170.219 241.701 171.188 240.024 171.188C238.348 171.188 237.155 170.187 237.155 168.733Z" fill="white"/>
<path d="M252.05 169.54V171.059H247.859V165.049H249.696V169.508H252.05V169.54Z" fill="white"/>
<path d="M260.755 166.536H258.982V171.027H257.176V166.536H255.403V165.049H260.787V166.536H260.755Z" fill="white"/>
<path d="M268.944 170.057H266.623L266.268 171.027H264.334L266.913 165.049H268.686L271.33 171.027H269.331L268.944 170.057ZM267.783 166.923L267.074 168.765H268.525L267.783 166.923Z" fill="white"/>
<path d="M280.486 165.049V171.027H279.003L276.392 167.796V171.027H274.651V165.049H276.231L278.745 168.183V165.049H280.486Z" fill="white"/>
<path d="M250.937 229.443V232.755H240.621V217.862L251.492 213.624C252.303 217.794 255.979 220.928 260.368 220.928C265.351 220.928 269.412 216.892 269.412 211.866C269.412 210.119 268.934 208.5 268.092 207.131L279.921 202.509C282.801 205.877 284.532 210.275 284.532 215.065C284.532 225.775 275.857 234.468 265.172 234.468C259.987 234.468 255.273 232.421 251.783 229.082L250.937 228.272V229.443Z" fill="black" stroke="white"/>
<path d="M272.299 200.27C271.331 196.681 268.046 194.048 264.173 194.048C259.511 194.048 255.741 197.827 255.741 202.497C255.741 203.894 256.076 205.218 256.681 206.377L244.582 211.101C242.268 207.942 240.911 204.058 240.911 199.847C240.911 189.299 249.458 180.735 259.981 180.735C264.631 180.735 268.903 182.404 272.201 185.174L273.023 185.864V184.791V182.415H283.339V195.952L272.299 200.27Z" fill="black" stroke="white"/>
</g>
<defs>
<filter id="filter0_b" x="-9.5" y="-9.5" width="408" height="408" filterUnits="userSpaceOnUse" color-interpolation-filters="sRGB">
<feFlood flood-opacity="0" result="BackgroundImageFix"/>
<feGaussianBlur in="BackgroundImage" stdDeviation="5"/>
<feComposite in2="SourceAlpha" operator="in" result="effect1_backgroundBlur"/>
<feBlend mode="normal" in="SourceGraphic" in2="effect1_backgroundBlur" result="shape"/>
</filter>
<linearGradient id="paint0_linear" x1="26.0412" y1="0.999992" x2="329.473" y2="145.599" gradientUnits="userSpaceOnUse">
<stop stop-color="white" stop-opacity="0.4"/>
<stop offset="1" stop-color="white" stop-opacity="0.1"/>
</linearGradient>
<linearGradient id="paint1_linear" x1="34.0088" y1="1.00001" x2="471.755" y2="166.593" gradientUnits="userSpaceOnUse">
<stop stop-color="white" stop-opacity="0.5"/>
<stop offset="0.457592" stop-color="white" stop-opacity="0"/>
<stop offset="0.67849" stop-color="#FF7433"/>
<stop offset="1" stop-color="#FF7433"/>
</linearGradient>
<clipPath id="clip0">
<rect width="180" height="81" fill="white" transform="translate(105 154)"/>
</clipPath>
</defs>
</svg>
