<svg width="180" height="60" viewBox="0 0 180 60" fill="none" xmlns="http://www.w3.org/2000/svg">
<path fill-rule="evenodd" clip-rule="evenodd" d="M51.4076 38.0282C50.3387 38.0282 49.3157 37.8747 48.3387 37.5678C47.3616 37.2608 46.5975 36.875 46.0464 36.4105L46.8481 35.0167C47.3992 35.4481 48.0923 35.8007 48.9274 36.0745C49.7625 36.3482 50.631 36.4851 51.5328 36.4851C52.7354 36.4851 53.6247 36.2985 54.2009 35.9251C54.7771 35.5518 55.0652 35.025 55.0652 34.3447C55.0652 33.8636 54.9066 33.4861 54.5892 33.2123C54.2719 32.9385 53.8711 32.7311 53.3867 32.5901C52.9024 32.4491 52.2594 32.3122 51.4577 32.1795C50.3888 31.9803 49.5287 31.7771 48.8773 31.5697C48.2259 31.3623 47.6706 31.0097 47.2113 30.5119C46.752 30.0142 46.5224 29.3256 46.5224 28.4462C46.5224 27.3511 46.9817 26.4551 47.9003 25.7583C48.8188 25.0614 50.0965 24.713 51.7333 24.713C52.585 24.713 53.4368 24.825 54.2886 25.049C55.1404 25.273 55.8418 25.5675 56.393 25.9325L55.6164 27.3511C54.5308 26.6045 53.2364 26.2311 51.7333 26.2311C50.5976 26.2311 49.7416 26.4303 49.1654 26.8285C48.5892 27.2267 48.3011 27.7493 48.3011 28.3964C48.3011 28.8942 48.4639 29.2924 48.7896 29.5911C49.1153 29.8897 49.5203 30.1096 50.0047 30.2506C50.489 30.3916 51.1571 30.5368 52.0088 30.6862C53.061 30.8853 53.9045 31.0844 54.5391 31.2835C55.1738 31.4826 55.7166 31.8227 56.1675 32.3039C56.6185 32.7851 56.8439 33.4487 56.8439 34.295C56.8439 35.4398 56.3638 36.3482 55.4034 37.0202C54.4431 37.6922 53.1111 38.0282 51.4076 38.0282ZM101.577 19.4366V37.9038H99.8733V35.3154C99.3389 36.1948 98.6333 36.8667 97.7564 37.3313C96.8796 37.7959 95.89 38.0282 94.7877 38.0282C93.5518 38.0282 92.4328 37.7461 91.4307 37.182C90.4286 36.6179 89.6436 35.8297 89.0758 34.8176C88.5079 33.8055 88.224 32.6523 88.224 31.3581C88.224 30.0639 88.5079 28.9108 89.0758 27.8987C89.6436 26.8865 90.4286 26.1026 91.4307 25.5467C92.4328 24.9909 93.5518 24.713 94.7877 24.713C95.8566 24.713 96.8211 24.9328 97.6813 25.3725C98.5414 25.8122 99.247 26.4551 99.7982 27.3013V19.4366H101.577ZM94.938 36.4602C95.8566 36.4602 96.6875 36.2487 97.4307 35.8256C98.174 35.4025 98.7585 34.801 99.1844 34.0212C99.6103 33.2413 99.8232 32.3537 99.8232 31.3581C99.8232 30.3626 99.6103 29.4749 99.1844 28.6951C98.7585 27.9153 98.174 27.3138 97.4307 26.8907C96.6875 26.4676 95.8566 26.256 94.938 26.256C94.0027 26.256 93.1635 26.4676 92.4203 26.8907C91.677 27.3138 91.0925 27.9153 90.6666 28.6951C90.2407 29.4749 90.0278 30.3626 90.0278 31.3581C90.0278 32.3537 90.2407 33.2413 90.6666 34.0212C91.0925 34.801 91.677 35.4025 92.4203 35.8256C93.1635 36.2487 94.0027 36.4602 94.938 36.4602ZM109.736 38.0282C108.667 38.0282 107.644 37.8747 106.667 37.5678C105.69 37.2608 104.926 36.875 104.374 36.4105L105.176 35.0167C105.727 35.4481 106.42 35.8007 107.255 36.0745C108.09 36.3482 108.959 36.4851 109.861 36.4851C111.063 36.4851 111.953 36.2985 112.529 35.9251C113.105 35.5518 113.393 35.025 113.393 34.3447C113.393 33.8636 113.235 33.4861 112.917 33.2123C112.6 32.9385 112.199 32.7311 111.715 32.5901C111.23 32.4491 110.587 32.3122 109.786 32.1795C108.717 31.9803 107.857 31.7771 107.205 31.5697C106.554 31.3623 105.999 31.0097 105.539 30.5119C105.08 30.0142 104.85 29.3256 104.85 28.4462C104.85 27.3511 105.31 26.4551 106.228 25.7583C107.147 25.0614 108.425 24.713 110.061 24.713C110.913 24.713 111.765 24.825 112.617 25.049C113.468 25.273 114.17 25.5675 114.721 25.9325L113.944 27.3511C112.859 26.6045 111.564 26.2311 110.061 26.2311C108.926 26.2311 108.07 26.4303 107.493 26.8285C106.917 27.2267 106.629 27.7493 106.629 28.3964C106.629 28.8942 106.792 29.2924 107.118 29.5911C107.443 29.8897 107.848 30.1096 108.333 30.2506C108.817 30.3916 109.485 30.5368 110.337 30.6862C111.389 30.8853 112.232 31.0844 112.867 31.2835C113.502 31.4826 114.045 31.8227 114.496 32.3039C114.946 32.7851 115.172 33.4487 115.172 34.295C115.172 35.4398 114.692 36.3482 113.731 37.0202C112.771 37.6922 111.439 38.0282 109.736 38.0282ZM124.105 37.1073C123.771 37.406 123.362 37.6341 122.878 37.7918C122.393 37.9494 121.884 38.0282 121.349 38.0282C120.113 38.0282 119.161 37.6964 118.493 37.0327C117.825 36.369 117.491 35.4315 117.491 34.2203V21.9504H119.27V24.8125H123.253V26.3058H119.27V34.1207C119.27 34.9006 119.462 35.4937 119.846 35.9002C120.23 36.3068 120.79 36.51 121.525 36.51C122.326 36.51 122.978 36.286 123.479 35.838L124.105 37.1073ZM139.362 24.8125V37.9038H137.658V35.3154C137.124 36.1948 136.418 36.8667 135.542 37.3313C134.665 37.7959 133.675 38.0282 132.573 38.0282C131.337 38.0282 130.218 37.7461 129.216 37.182C128.214 36.6179 127.429 35.8297 126.861 34.8176C126.293 33.8055 126.009 32.6523 126.009 31.3581C126.009 30.0639 126.293 28.9108 126.861 27.8987C127.429 26.8865 128.214 26.1026 129.216 25.5467C130.218 24.9909 131.337 24.713 132.573 24.713C133.642 24.713 134.606 24.9328 135.466 25.3725C136.327 25.8122 137.032 26.4551 137.583 27.3013V24.8125H139.362ZM132.723 36.4602C133.642 36.4602 134.473 36.2487 135.216 35.8256C135.959 35.4025 136.544 34.801 136.97 34.0212C137.395 33.2413 137.608 32.3537 137.608 31.3581C137.608 30.3626 137.395 29.4749 136.97 28.6951C136.544 27.9153 135.959 27.3138 135.216 26.8907C134.473 26.4676 133.642 26.256 132.723 26.256C131.788 26.256 130.949 26.4676 130.205 26.8907C129.462 27.3138 128.878 27.9153 128.452 28.6951C128.026 29.4749 127.813 30.3626 127.813 31.3581C127.813 32.3537 128.026 33.2413 128.452 34.0212C128.878 34.801 129.462 35.4025 130.205 35.8256C130.949 36.2487 131.788 36.4602 132.723 36.4602ZM144.27 27.376C144.688 26.4966 145.31 25.8329 146.137 25.3849C146.963 24.937 147.986 24.713 149.205 24.713V26.4303L148.78 26.4054C147.393 26.4054 146.308 26.8285 145.523 27.6747C144.738 28.5209 144.345 29.7072 144.345 31.2337V37.9038H142.567V24.8125H144.27V27.376ZM156.145 38.0282C155.076 38.0282 154.053 37.8747 153.076 37.5678C152.099 37.2608 151.335 36.875 150.784 36.4105L151.585 35.0167C152.137 35.4481 152.83 35.8007 153.665 36.0745C154.5 36.3482 155.368 36.4851 156.27 36.4851C157.473 36.4851 158.362 36.2985 158.938 35.9251C159.514 35.5518 159.803 35.025 159.803 34.3447C159.803 33.8636 159.644 33.4861 159.327 33.2123C159.009 32.9385 158.608 32.7311 158.124 32.5901C157.64 32.4491 156.997 32.3122 156.195 32.1795C155.126 31.9803 154.266 31.7771 153.615 31.5697C152.963 31.3623 152.408 31.0097 151.949 30.5119C151.489 30.0142 151.26 29.3256 151.26 28.4462C151.26 27.3511 151.719 26.4551 152.638 25.7583C153.556 25.0614 154.834 24.713 156.471 24.713C157.322 24.713 158.174 24.825 159.026 25.049C159.878 25.273 160.579 25.5675 161.13 25.9325L160.354 27.3511C159.268 26.6045 157.974 26.2311 156.471 26.2311C155.335 26.2311 154.479 26.4303 153.903 26.8285C153.327 27.2267 153.038 27.7493 153.038 28.3964C153.038 28.8942 153.201 29.2924 153.527 29.5911C153.853 29.8897 154.258 30.1096 154.742 30.2506C155.226 30.3916 155.894 30.5368 156.746 30.6862C157.798 30.8853 158.642 31.0844 159.276 31.2835C159.911 31.4826 160.454 31.8227 160.905 32.3039C161.356 32.7851 161.581 33.4487 161.581 34.295C161.581 35.4398 161.101 36.3482 160.141 37.0202C159.18 37.6922 157.848 38.0282 156.145 38.0282ZM71.1381 31.811H60.346C60.4441 33.1926 60.9592 34.3088 61.8912 35.1597C62.8233 36.0106 64.0006 36.436 65.4232 36.436C66.2244 36.436 66.9603 36.2886 67.6307 35.9937C68.3011 35.6989 68.8816 35.265 69.3722 34.6921L70.3533 35.8547C69.7809 36.5624 69.0656 37.1015 68.2071 37.4722C67.3486 37.8429 66.4043 38.0282 65.3742 38.0282C64.0497 38.0282 62.8764 37.7376 61.8544 37.1563C60.8324 36.575 60.0353 35.7705 59.463 34.7427C58.8907 33.7149 58.6045 32.5524 58.6045 31.255C58.6045 29.9576 58.8784 28.7951 59.4262 27.7673C59.974 26.7395 60.7262 25.9392 61.6827 25.3664C62.6393 24.7935 63.7144 24.5071 64.9081 24.5071C66.1018 24.5071 67.1728 24.7935 68.1212 25.3664C69.0697 25.9392 69.8136 26.7353 70.3533 27.7547C70.8929 28.774 71.1627 29.9408 71.1627 31.255L71.1381 31.811ZM64.9081 26.0487C63.6654 26.0487 62.623 26.4573 61.7809 27.2745C60.9387 28.0916 60.4605 29.1573 60.346 30.4715H69.4948C69.3803 29.1573 68.902 28.0916 68.0599 27.2745C67.2178 26.4573 66.1672 26.0487 64.9081 26.0487ZM86.2079 31.811H75.4158C75.5139 33.1926 76.0289 34.3088 76.961 35.1597C77.8931 36.0106 79.0704 36.436 80.493 36.436C81.2942 36.436 82.03 36.2886 82.7005 35.9937C83.3709 35.6989 83.9514 35.265 84.4419 34.6921L85.423 35.8547C84.8507 36.5624 84.1353 37.1015 83.2769 37.4722C82.4184 37.8429 81.4741 38.0282 80.4439 38.0282C79.1194 38.0282 77.9462 37.7376 76.9242 37.1563C75.9022 36.575 75.1051 35.7705 74.5328 34.7427C73.9604 33.7149 73.6743 32.5524 73.6743 31.255C73.6743 29.9576 73.9482 28.7951 74.496 27.7673C75.0438 26.7395 75.7959 25.9392 76.7525 25.3664C77.7091 24.7935 78.7842 24.5071 79.9779 24.5071C81.1716 24.5071 82.2426 24.7935 83.191 25.3664C84.1394 25.9392 84.8834 26.7353 85.423 27.7547C85.9626 28.774 86.2324 29.9408 86.2324 31.255L86.2079 31.811ZM79.9779 26.0487C78.7352 26.0487 77.6927 26.4573 76.8506 27.2745C76.0085 28.0916 75.5302 29.1573 75.4158 30.4715H84.5646C84.4501 29.1573 83.9718 28.0916 83.1297 27.2745C82.2876 26.4573 81.237 26.0487 79.9779 26.0487Z" fill="white"/>
<mask id="mask0" mask-type="alpha" maskUnits="userSpaceOnUse" x="20" y="20" width="20" height="20">
<path d="M28.0132 20.8732C27.7848 20.8732 27.6015 21.0637 27.6092 21.2971C27.6571 22.7003 27.8457 25.0078 28.1752 28.2208C26.8519 27.4493 24.7637 26.543 21.9105 25.5014C21.6966 25.4234 21.4585 25.5414 21.3884 25.7628L20.3222 29.1321C20.2509 29.3581 20.3773 29.6001 20.6017 29.6599C22.7089 30.2257 24.926 30.7399 27.2531 31.2009C26.3315 32.0689 24.8273 33.8135 22.7395 36.4361C22.5929 36.6204 22.6267 36.8954 22.8152 37.034L25.5459 39.0479C25.7252 39.1798 25.9758 39.1423 26.1055 38.9596C27.127 37.521 28.2976 35.5153 29.6169 32.9418C31.03 35.4332 32.2686 37.4377 33.3325 38.9563C33.461 39.1411 33.7111 39.1807 33.892 39.05L36.6715 37.0344C36.8624 36.8962 36.8971 36.6175 36.7484 36.4324C34.7484 33.9422 33.1879 32.1983 32.0668 31.2009C34.2872 30.9403 36.5506 30.4323 38.8572 29.6777C39.0703 29.608 39.1887 29.3713 39.1198 29.1536L38.0447 25.757C37.9754 25.5377 37.7414 25.4185 37.5279 25.4919C35.1311 26.3211 32.9933 27.2209 31.1154 28.1911C31.4723 25.47 31.6886 23.1724 31.7639 21.2987C31.7732 21.0649 31.5887 20.8732 31.3595 20.8732H28.0132Z" fill="white"/>
</mask>
<g mask="url(#mask0)">
<path d="M28.0132 20.8732C27.7848 20.8732 27.6015 21.0637 27.6092 21.2971C27.6571 22.7003 27.8457 25.0078 28.1752 28.2208C26.8519 27.4493 24.7637 26.543 21.9105 25.5014C21.6966 25.4234 21.4585 25.5414 21.3884 25.7628L20.3222 29.1321C20.2509 29.3581 20.3773 29.6001 20.6017 29.6599C22.7089 30.2257 24.926 30.7399 27.2531 31.2009C26.3315 32.0689 24.8273 33.8135 22.7395 36.4361C22.5929 36.6204 22.6267 36.8954 22.8152 37.034L25.5459 39.0479C25.7252 39.1798 25.9758 39.1423 26.1055 38.9596C27.127 37.521 28.2976 35.5153 29.6169 32.9418C31.03 35.4332 32.2686 37.4377 33.3325 38.9563C33.461 39.1411 33.7111 39.1807 33.892 39.05L36.6715 37.0344C36.8624 36.8962 36.8971 36.6175 36.7484 36.4324C34.7484 33.9422 33.1879 32.1983 32.0668 31.2009C34.2872 30.9403 36.5506 30.4323 38.8572 29.6777C39.0703 29.608 39.1887 29.3713 39.1198 29.1536L38.0447 25.757C37.9754 25.5377 37.7414 25.4185 37.5279 25.4919C35.1311 26.3211 32.9933 27.2209 31.1154 28.1911C31.4723 25.47 31.6886 23.1724 31.7639 21.2987C31.7732 21.0649 31.5887 20.8732 31.3595 20.8732H28.0132Z" fill="#FF7433"/>
<path d="M41.1101 18.2113H18.4185V41.116H41.1101V18.2113Z" fill="white"/>
</g>
</svg>
