<svg width="392" height="401" viewBox="0 0 392 401" fill="none" xmlns="http://www.w3.org/2000/svg">
<g opacity="0.6" clip-path="url(#clip0)">
<mask id="mask0" mask-type="alpha" maskUnits="userSpaceOnUse" x="125" y="78" width="130" height="132">
<path d="M194.754 209.28H194.758L254.841 79.0269L254.718 78.8118L201.473 84.9457L254.494 78.8377L194.486 208.931L194.605 209.13L194.823 209.127L194.754 209.28ZM170.802 169.158L125.877 93.6553L125.843 93.6594L170.802 169.158ZM146.787 129.571L125.539 93.8615L125.53 93.8752L146.787 129.571ZM200.58 84.6425L254.274 78.4561L200.58 84.6425Z" fill="white"/>
</mask>
<g mask="url(#mask0)">
<path fill-rule="evenodd" clip-rule="evenodd" d="M194.754 209.28H194.758L254.841 79.0269L254.718 78.8118L201.473 84.9457L254.494 78.8377L194.486 208.931L194.605 209.13L194.823 209.127L194.754 209.28ZM170.802 169.158L125.877 93.6553L125.843 93.6594L170.802 169.158ZM146.787 129.571L125.539 93.8615L125.53 93.8752L146.787 129.571ZM200.58 84.6425L254.274 78.4561L200.58 84.6425Z" fill="#FF7433"/>
</g>
<mask id="mask1" mask-type="alpha" maskUnits="userSpaceOnUse" x="125" y="10" width="130" height="84">
<path d="M125.843 93.6594L125.877 93.6553L201.473 84.9457L254.718 78.8119L254.694 78.769L254.543 78.7262L254.572 78.6639L158.23 10.941L147.724 37.6479L158.235 10.945L254.274 78.4561L200.58 84.6425L125.849 93.2519L125.843 93.2689L125.898 93.2648L125.751 93.5049L125.843 93.6594ZM125.409 93.2656L125.421 93.2648L157.659 11.3501L157.65 11.3582L125.409 93.2656ZM165.406 15.4959L158.858 10.8933H158.857L165.406 15.4959ZM158.078 10.4292L158.13 10.3815L158.055 10.329L158.017 10.4244L158.078 10.4292Z" fill="white"/>
</mask>
<g mask="url(#mask1)">
<path fill-rule="evenodd" clip-rule="evenodd" d="M125.843 93.6594L125.877 93.6553L201.473 84.9457L254.718 78.8119L254.694 78.769L254.543 78.7262L254.572 78.6639L158.23 10.941L147.724 37.6479L158.235 10.945L254.274 78.4561L200.58 84.6425L125.849 93.2519L125.843 93.2689L125.898 93.2648L125.751 93.5049L125.843 93.6594ZM125.409 93.2656L125.421 93.2648L157.659 11.3501L157.65 11.3582L125.409 93.2656ZM165.406 15.4959L158.858 10.8933H158.857L165.406 15.4959ZM158.078 10.4292L158.13 10.3815L158.055 10.329L158.017 10.4244L158.078 10.4292Z" fill="#FF7433"/>
</g>
<mask id="mask2" mask-type="alpha" maskUnits="userSpaceOnUse" x="156" y="2" width="127" height="19">
<path d="M282.45 20.1842L282.578 19.915L282.645 19.7767L197.562 2.98566L197.526 2.99293L158.803 10.3071L158.299 10.7664L158.267 10.8488L158.857 10.8933H158.858L282.45 20.1842ZM279.41 19.5504L159.691 10.5505L197.56 3.39717L279.41 19.5504ZM157.245 10.772L158.042 10.4608L158.057 10.4478L157.641 10.5262L156.6 10.7235L157.245 10.772Z" fill="white"/>
</mask>
<g mask="url(#mask2)">
<path fill-rule="evenodd" clip-rule="evenodd" d="M282.45 20.1842L282.578 19.915L282.645 19.7767L197.562 2.98566L197.526 2.99293L158.803 10.3071L158.299 10.7664L158.267 10.8488L158.857 10.8933H158.858L282.45 20.1842ZM279.41 19.5504L159.691 10.5505L197.56 3.39717L279.41 19.5504ZM157.245 10.772L158.042 10.4608L158.057 10.4478L157.641 10.5262L156.6 10.7235L157.245 10.772Z" fill="#FF7433"/>
</g>
<mask id="mask3" mask-type="alpha" maskUnits="userSpaceOnUse" x="24" y="89" width="39" height="30">
<path d="M24.5451 118.211L24.79 118.08L24.8925 117.647L24.8995 117.617L24.5451 118.211ZM24.9441 117.542L25.6201 117.18L41.8204 90.0156L61.9783 97.7131L62.2749 97.5538L62.2803 97.4907L62.3429 97.4867L62.3711 97.4317L62.3687 97.4309L42.7484 89.9388L41.689 89.5346L41.6554 89.5217L41.5826 89.6437L41.4464 89.8725L24.9441 117.542Z" fill="white"/>
</mask>
<g mask="url(#mask3)">
<path fill-rule="evenodd" clip-rule="evenodd" d="M24.5451 118.211L24.79 118.08L24.8925 117.647L24.8995 117.617L24.5451 118.211ZM24.9441 117.542L25.6201 117.18L41.8204 90.0156L61.9783 97.7131L62.2749 97.5538L62.2803 97.4907L62.3429 97.4867L62.3711 97.4317L62.3687 97.4309L42.7484 89.9388L41.689 89.5346L41.6554 89.5217L41.5826 89.6437L41.4464 89.8725L24.9441 117.542Z" fill="#FF7433"/>
</g>
<mask id="mask4" mask-type="alpha" maskUnits="userSpaceOnUse" x="53" y="209" width="142" height="131">
<path d="M136.247 339.476L139.006 333.34L136.247 339.476ZM135.89 339.32L194.273 209.476L194.174 209.282L194.359 209.282L194.425 209.133L194.131 209.137L143.137 209.839L53.8238 211.067L53.5993 211.435L194.193 209.577L135.886 339.319L135.89 339.32ZM135.024 337.981L53.5719 211.479L53.4217 211.725L135.024 337.981ZM194.6 209.281L194.754 209.28L194.823 209.127L194.605 209.13L194.514 209.131L194.6 209.281Z" fill="white"/>
</mask>
<g mask="url(#mask4)">
<path fill-rule="evenodd" clip-rule="evenodd" d="M136.247 339.476L139.006 333.34L136.247 339.476ZM135.89 339.32L194.273 209.476L194.174 209.282L194.359 209.282L194.425 209.133L194.131 209.137L143.137 209.839L53.8238 211.067L53.5993 211.435L194.193 209.577L135.886 339.319L135.89 339.32ZM135.024 337.981L53.5719 211.479L53.4217 211.725L135.024 337.981ZM194.6 209.281L194.754 209.28L194.823 209.127L194.605 209.13L194.514 209.131L194.6 209.281Z" fill="#FF7433"/>
</g>
<mask id="mask5" mask-type="alpha" maskUnits="userSpaceOnUse" x="229" y="320" width="111" height="75">
<path d="M229.199 394.679L229.605 394.425L229.578 394.409L229.265 394.511L229.199 394.679ZM229.506 393.901L234.819 380.429L229.506 393.901ZM249.195 381.708L338.859 325.66L338.85 325.552H338.849L258.775 320.93H258.774L258.711 320.926L258.642 321.102L258.729 321.271L258.565 321.295L258.554 321.322L338.421 325.932L249.195 381.708ZM273.157 367.201L337.668 326.877L337.669 326.876L273.157 367.201ZM339.218 325.908L339.269 325.876L339.707 325.602L339.523 325.592L339.227 325.886L339.218 325.908Z" fill="white"/>
</mask>
<g mask="url(#mask5)">
<path fill-rule="evenodd" clip-rule="evenodd" d="M229.199 394.679L229.605 394.425L229.578 394.409L229.265 394.511L229.199 394.679ZM229.506 393.901L234.819 380.429L229.506 393.901ZM249.195 381.708L338.859 325.66L338.85 325.552H338.849L258.775 320.93H258.774L258.711 320.926L258.642 321.102L258.729 321.271L258.565 321.295L258.554 321.322L338.421 325.932L249.195 381.708ZM273.157 367.201L337.668 326.877L337.669 326.876L273.157 367.201ZM339.218 325.908L339.269 325.876L339.707 325.602L339.523 325.592L339.227 325.886L339.218 325.908Z" fill="#FF7433"/>
</g>
<mask id="mask6" mask-type="alpha" maskUnits="userSpaceOnUse" x="228" y="324" width="113" height="71">
<path d="M228.115 394.884L229.265 394.51L229.578 394.409L229.563 394.4L228.684 394.528L228.115 394.884ZM230.614 394.073L290.105 374.785L338.47 326.64L338.865 325.733L338.859 325.66L230.007 393.701L229.884 394.012L230.614 394.073ZM337.668 326.876L289.866 374.462L231.09 393.497L337.668 326.876ZM339.227 325.886L340.46 324.659L339.919 324.998L339.233 325.873L339.227 325.886Z" fill="white"/>
</mask>
<g mask="url(#mask6)">
<path fill-rule="evenodd" clip-rule="evenodd" d="M228.115 394.884L229.265 394.51L229.578 394.409L229.563 394.4L228.684 394.528L228.115 394.884ZM230.614 394.073L290.105 374.785L338.47 326.64L338.865 325.733L338.859 325.66L230.007 393.701L229.884 394.012L230.614 394.073ZM337.668 326.876L289.866 374.462L231.09 393.497L337.668 326.876ZM339.227 325.886L340.46 324.659L339.919 324.998L339.233 325.873L339.227 325.886Z" fill="#FF7433"/>
</g>
<mask id="mask7" mask-type="alpha" maskUnits="userSpaceOnUse" x="338" y="209" width="53" height="119">
<path d="M338.266 327.108L338.912 326.283L338.865 325.733L338.471 326.64L338.266 327.108ZM339.233 325.873L339.919 324.998L362.236 296.502L390.111 209.134H390.097L388.611 212.545L361.875 296.341L339.863 324.428L339.233 325.873ZM355.119 288.427L389.668 209.134H389.668L355.119 288.427Z" fill="white"/>
</mask>
<g mask="url(#mask7)">
<path fill-rule="evenodd" clip-rule="evenodd" d="M338.266 327.108L338.912 326.283L338.865 325.733L338.471 326.64L338.266 327.108ZM339.233 325.873L339.919 324.998L362.236 296.502L390.111 209.134H390.097L388.611 212.545L361.875 296.341L339.863 324.428L339.233 325.873ZM355.119 288.427L389.668 209.134H389.668L355.119 288.427Z" fill="#FF7433"/>
</g>
<mask id="mask8" mask-type="alpha" maskUnits="userSpaceOnUse" x="113" y="384" width="119" height="16">
<path d="M197.559 399.05L197.587 399.045L228.684 394.528L229.562 394.401L229.542 394.388L227.828 394.244L197.563 398.641L118.463 385.01L139.384 386.776L113.937 384.628L113.931 384.639L197.559 399.05ZM230.199 394.308L231.373 394.138L230.614 394.073L229.884 394.012L229.849 394.102L230.199 394.308ZM142.051 386.596L114.138 384.239V384.24L142.051 386.596Z" fill="white"/>
</mask>
<g mask="url(#mask8)">
<path fill-rule="evenodd" clip-rule="evenodd" d="M197.559 399.05L197.587 399.045L228.684 394.528L229.562 394.401L229.542 394.388L227.828 394.244L197.563 398.641L118.463 385.01L139.384 386.776L113.937 384.628L113.931 384.639L197.559 399.05ZM230.199 394.308L231.373 394.138L230.614 394.073L229.884 394.012L229.849 394.102L230.199 394.308ZM142.051 386.596L114.138 384.239V384.24L142.051 386.596Z" fill="#FF7433"/>
</g>
<mask id="mask9" mask-type="alpha" maskUnits="userSpaceOnUse" x="148" y="320" width="111" height="75">
<path d="M229.7 394.48L229.73 394.404L229.542 394.388L229.563 394.4L229.578 394.409L229.605 394.425L229.7 394.48ZM229.849 394.102L229.884 394.012L230.007 393.701L258.554 321.323V321.322L258.565 321.295L257.154 321.51L258.115 321.364L229.506 393.901L203.238 378.631L229.699 394.014L229.849 394.102ZM228.736 393.914L148.955 347.54L228.725 393.913L228.736 393.914ZM198.843 329.963L258.124 320.954L258.093 320.959L198.843 329.963ZM258.642 321.102L258.711 320.926L258.737 320.86L258.527 320.892L258.599 321.018L258.642 321.102Z" fill="white"/>
</mask>
<g mask="url(#mask9)">
<path fill-rule="evenodd" clip-rule="evenodd" d="M229.7 394.48L229.73 394.404L229.542 394.388L229.563 394.4L229.578 394.409L229.605 394.425L229.7 394.48ZM229.849 394.102L229.884 394.012L230.007 393.701L258.554 321.323V321.322L258.565 321.295L257.154 321.51L258.115 321.364L229.506 393.901L203.238 378.631L229.699 394.014L229.849 394.102ZM228.736 393.914L148.955 347.54L228.725 393.913L228.736 393.914ZM198.843 329.963L258.124 320.954L258.093 320.959L198.843 329.963ZM258.642 321.102L258.711 320.926L258.737 320.86L258.527 320.892L258.599 321.018L258.642 321.102Z" fill="#FF7433"/>
</g>
<mask id="mask10" mask-type="alpha" maskUnits="userSpaceOnUse" x="113" y="339" width="118" height="56">
<path d="M230.469 394.467L230.199 394.308L229.849 394.102L229.699 394.014L136.515 339.843L136.256 339.883L136.38 340.071L136.124 339.997L136.091 340.063L228.735 393.914L228.724 393.913L142.051 386.596L114.138 384.24L114.974 382.547L113.998 384.511L113.937 384.628L139.384 386.776L227.828 394.244L229.542 394.388L229.73 394.405L230.469 394.467ZM113.739 384.611L113.581 384.453L113.512 384.591L113.739 384.611ZM113.775 384.084L135.632 340.086L135.537 340.058L113.767 384.077L113.775 384.084Z" fill="white"/>
</mask>
<g mask="url(#mask10)">
<path fill-rule="evenodd" clip-rule="evenodd" d="M230.469 394.467L230.199 394.308L229.849 394.102L229.699 394.014L136.515 339.843L136.256 339.883L136.38 340.071L136.124 339.997L136.091 340.063L228.735 393.914L228.724 393.913L142.051 386.596L114.138 384.24L114.974 382.547L113.998 384.511L113.937 384.628L139.384 386.776L227.828 394.244L229.542 394.388L229.73 394.405L230.469 394.467ZM113.739 384.611L113.581 384.453L113.512 384.591L113.739 384.611ZM113.775 384.084L135.632 340.086L135.537 340.058L113.767 384.077L113.775 384.084Z" fill="#FF7433"/>
</g>
<mask id="mask11" mask-type="alpha" maskUnits="userSpaceOnUse" x="328" y="208" width="63" height="119">
<path d="M338.935 326.557L339.188 325.977L339.218 325.908L339.227 325.886L339.233 325.873L339.863 324.428L390.097 209.134H389.668L339.194 324.978L329.367 209.134H329.304L329.222 209.449L329.042 209.134H328.975L338.85 325.552L338.859 325.66L338.935 326.557ZM390.181 208.942L390.273 208.73H390.124L390.157 208.873L390.181 208.942Z" fill="white"/>
</mask>
<g mask="url(#mask11)">
<path fill-rule="evenodd" clip-rule="evenodd" d="M338.935 326.557L339.188 325.977L339.218 325.908L339.227 325.886L339.233 325.873L339.863 324.428L390.097 209.134H389.668L339.194 324.978L329.367 209.134H329.304L329.222 209.449L329.042 209.134H328.975L338.85 325.552L338.859 325.66L338.935 326.557ZM390.181 208.942L390.273 208.73H390.124L390.157 208.873L390.181 208.942Z" fill="#FF7433"/>
</g>
<mask id="mask12" mask-type="alpha" maskUnits="userSpaceOnUse" x="254" y="19" width="102" height="89">
<path d="M355.342 107.598L255.237 78.9251L355.342 107.598ZM355.013 107.084L280.18 85.6499L355.013 107.084ZM254.694 78.769L254.654 78.6987L254.6 78.6057L254.572 78.6639L254.542 78.7262L254.694 78.769ZM255.102 78.4667L282.799 20.3677L322.797 68.398L282.606 20.1365L282.893 19.8633L282.902 19.8722L282.849 19.8091L282.709 19.6409L282.644 19.7768L282.578 19.915L254.719 78.3567L255.102 78.4667ZM304.462 45.7617L286.947 24.7294L286.945 24.7286L304.462 45.7617Z" fill="white"/>
</mask>
<g mask="url(#mask12)">
<path fill-rule="evenodd" clip-rule="evenodd" d="M355.342 107.598L255.237 78.9251L355.342 107.598ZM355.013 107.084L280.18 85.6499L355.013 107.084ZM254.694 78.769L254.654 78.6987L254.6 78.6057L254.572 78.6639L254.542 78.7262L254.694 78.769ZM255.102 78.4667L282.799 20.3677L322.797 68.398L282.606 20.1365L282.893 19.8633L282.902 19.8722L282.849 19.8091L282.709 19.6409L282.644 19.7768L282.578 19.915L254.719 78.3567L255.102 78.4667ZM304.462 45.7617L286.947 24.7294L286.945 24.7286L304.462 45.7617Z" fill="#FF7433"/>
</g>
<mask id="mask13" mask-type="alpha" maskUnits="userSpaceOnUse" x="328" y="106" width="63" height="104">
<path d="M328.898 209.134H329.042L328.944 208.961L328.898 209.134ZM329.304 209.134H390.246L390.181 208.942L390.157 208.873L390.16 208.884L389.786 208.999L355.607 108.139V108.142L389.694 208.73H329.409L335.4 185.724L329.343 208.985L329.304 209.134ZM388.822 204.931L388.821 204.928L381.89 184.478L388.822 204.931ZM330.534 202.856L355.343 107.598H355.342L330.534 202.856ZM355.733 107.29L355.557 106.773L355.489 107.036L355.692 107.278L355.733 107.29Z" fill="white"/>
</mask>
<g mask="url(#mask13)">
<path fill-rule="evenodd" clip-rule="evenodd" d="M328.898 209.134H329.042L328.944 208.961L328.898 209.134ZM329.304 209.134H390.246L390.181 208.942L390.157 208.873L390.16 208.884L389.786 208.999L355.607 108.139V108.142L389.694 208.73H329.409L335.4 185.724L329.343 208.985L329.304 209.134ZM388.822 204.931L388.821 204.928L381.89 184.478L388.822 204.931ZM330.534 202.856L355.343 107.598H355.342L330.534 202.856ZM355.733 107.29L355.557 106.773L355.489 107.036L355.692 107.278L355.733 107.29Z" fill="#FF7433"/>
</g>
<mask id="mask14" mask-type="alpha" maskUnits="userSpaceOnUse" x="355" y="107" width="36" height="102">
<path d="M389.786 208.999L390.16 208.884L390.157 208.873L390.124 208.73L370.066 123.997L369.517 123.383L388.821 204.928L388.822 204.931L356.081 108.314L355.679 107.863L355.607 108.139L389.786 208.999ZM368.964 122.165L368.964 122.164L355.8 107.4L355.799 107.402L368.964 122.165Z" fill="white"/>
</mask>
<g mask="url(#mask14)">
<path fill-rule="evenodd" clip-rule="evenodd" d="M389.786 208.999L390.16 208.884L390.157 208.873L390.124 208.73L370.066 123.997L369.517 123.383L388.821 204.928L388.822 204.931L356.081 108.314L355.679 107.863L355.607 108.139L389.786 208.999ZM368.964 122.165L368.964 122.164L355.8 107.4L355.799 107.402L368.964 122.165Z" fill="#FF7433"/>
</g>
<mask id="mask15" mask-type="alpha" maskUnits="userSpaceOnUse" x="282" y="19" width="89" height="106">
<path d="M370.426 124.401L369.881 123.219L369.857 123.166L359.702 101.117L282.99 19.966L282.902 19.8722L282.893 19.8633L282.606 20.1365L355.014 107.084L355.635 107.262L355.692 107.278L355.489 107.036L286.946 24.7286L359.399 101.375L368.964 122.164L368.964 122.165L355.799 107.402L355.679 107.863L369.518 123.383L370.066 123.997L370.426 124.401Z" fill="white"/>
</mask>
<g mask="url(#mask15)">
<path fill-rule="evenodd" clip-rule="evenodd" d="M370.426 124.401L369.881 123.219L369.857 123.166L359.702 101.117L282.99 19.966L282.902 19.8722L282.893 19.8633L282.606 20.1365L355.014 107.084L355.635 107.262L355.692 107.278L355.489 107.036L286.946 24.7286L359.399 101.375L368.964 122.164L368.964 122.165L355.799 107.402L355.679 107.863L369.518 123.383L370.066 123.997L370.426 124.401Z" fill="#FF7433"/>
</g>
<mask id="mask16" mask-type="alpha" maskUnits="userSpaceOnUse" x="41" y="211" width="96" height="130">
<path d="M136.38 340.071L136.257 339.883L136.081 339.616L135.89 339.32L135.887 339.316L53.4216 211.725L53.3567 211.83L53.3136 211.903L41.9026 312.991L42.4307 313.142L42.5356 313.173L135.647 339.86L135.91 339.936L136.124 339.997L136.38 340.071ZM53.323 212.283L135.458 339.39L41.9526 312.586L53.323 212.283ZM41.5927 312.903L41.5372 312.76L41.5317 312.809L41.5231 312.883L41.5927 312.903ZM41.635 311.932L42.3431 305.656L41.6319 311.925L41.635 311.932Z" fill="white"/>
</mask>
<g mask="url(#mask16)">
<path fill-rule="evenodd" clip-rule="evenodd" d="M136.38 340.071L136.257 339.883L136.081 339.616L135.89 339.32L135.887 339.316L53.4216 211.725L53.3567 211.83L53.3136 211.903L41.9026 312.991L42.4307 313.142L42.5356 313.173L135.647 339.86L135.91 339.936L136.124 339.997L136.38 340.071ZM53.323 212.283L135.458 339.39L41.9526 312.586L53.323 212.283ZM41.5927 312.903L41.5372 312.76L41.5317 312.809L41.5231 312.883L41.5927 312.903ZM41.635 311.932L42.3431 305.656L41.6319 311.925L41.635 311.932Z" fill="#FF7433"/>
</g>
<mask id="mask17" mask-type="alpha" maskUnits="userSpaceOnUse" x="52" y="93" width="74" height="120">
<path d="M52.9309 212.537L53.3135 211.903L53.3566 211.83L53.4215 211.725L53.5717 211.479L53.5991 211.435L53.8237 211.068L53.8651 210.999L125.751 93.505L125.898 93.2649L125.843 93.2689L125.619 93.2835L125.419 93.2972L64.1972 97.3638L63.263 97.4261L62.8005 97.4568L62.6488 97.7478L53.3714 211.434L53.0201 211.444L52.9309 212.537ZM125.165 93.7193L53.4512 210.91L53.495 210.365L62.6315 98.0017L62.6417 97.8723L62.7833 97.8635L125.16 93.7193H125.165ZM61.7004 104.632L62.191 98.6266L62.1879 98.6331L61.7004 104.632Z" fill="white"/>
</mask>
<g mask="url(#mask17)">
<path fill-rule="evenodd" clip-rule="evenodd" d="M52.9309 212.537L53.3135 211.903L53.3566 211.83L53.4215 211.725L53.5717 211.479L53.5991 211.435L53.8237 211.068L53.8651 210.999L125.751 93.505L125.898 93.2649L125.843 93.2689L125.619 93.2835L125.419 93.2972L64.1972 97.3638L63.263 97.4261L62.8005 97.4568L62.6488 97.7478L53.3714 211.434L53.0201 211.444L52.9309 212.537ZM125.165 93.7193L53.4512 210.91L53.495 210.365L62.6315 98.0017L62.6417 97.8723L62.7833 97.8635L125.16 93.7193H125.165ZM61.7004 104.632L62.191 98.6266L62.1879 98.6331L61.7004 104.632Z" fill="#FF7433"/>
</g>
<mask id="mask18" mask-type="alpha" maskUnits="userSpaceOnUse" x="2" y="96" width="61" height="117">
<path d="M2.52484 212.857L24.7257 212.236L52.8292 211.449L52.9692 211.445L53.0201 211.444L53.3714 211.434L62.6488 97.7478L62.1902 98.6274L53.0107 211.029L29.1887 211.705L2.87302 212.452L2.87928 212.44L45.6331 130.399L2.71732 212.75L2.58353 212.743L2.52484 212.857ZM62.3209 97.5295L62.6824 97.3355L62.7317 96.7364L62.371 97.4317L62.3428 97.4866L62.3209 97.5295Z" fill="white"/>
</mask>
<g mask="url(#mask18)">
<path fill-rule="evenodd" clip-rule="evenodd" d="M2.52484 212.857L24.7257 212.236L52.8292 211.449L52.9692 211.445L53.0201 211.444L53.3714 211.434L62.6488 97.7478L62.1902 98.6274L53.0107 211.029L29.1887 211.705L2.87302 212.452L2.87928 212.44L45.6331 130.399L2.71732 212.75L2.58353 212.743L2.52484 212.857ZM62.3209 97.5295L62.6824 97.3355L62.7317 96.7364L62.371 97.4317L62.3428 97.4866L62.3209 97.5295Z" fill="#FF7433"/>
</g>
<mask id="mask19" mask-type="alpha" maskUnits="userSpaceOnUse" x="2" y="97" width="61" height="116">
<path d="M2.71738 212.75L62.1879 98.6331L62.1902 98.6274L62.8005 97.4568L62.9343 97.2005L62.9288 97.2037L62.6824 97.3355L62.3209 97.5295L62.2747 97.5538L61.9774 97.7131L25.62 117.18L24.944 117.542L24.9135 117.559L24.8994 117.617L24.8924 117.647L2.43023 212.452L2.36451 212.731L2.58358 212.743L2.71738 212.75ZM61.9884 98.1626L3.10077 211.163L25.2507 117.833L61.9884 98.1626Z" fill="white"/>
</mask>
<g mask="url(#mask19)">
<path fill-rule="evenodd" clip-rule="evenodd" d="M2.71738 212.75L62.1879 98.6331L62.1902 98.6274L62.8005 97.4568L62.9343 97.2005L62.9288 97.2037L62.6824 97.3355L62.3209 97.5295L62.2747 97.5538L61.9774 97.7131L25.62 117.18L24.944 117.542L24.9135 117.559L24.8994 117.617L24.8924 117.647L2.43023 212.452L2.36451 212.731L2.58358 212.743L2.71738 212.75ZM61.9884 98.1626L3.10077 211.163L25.2507 117.833L61.9884 98.1626Z" fill="#FF7433"/>
</g>
<path fill-rule="evenodd" clip-rule="evenodd" d="M311.189 132.486L311.568 132.383L282.988 20.3168L282.608 20.4195L311.189 132.486Z" fill="#FF7433"/>
<path fill-rule="evenodd" clip-rule="evenodd" d="M311.261 132.595L311.497 132.273L157.944 10.3807L157.708 10.7017L311.261 132.595Z" fill="#FF7433"/>
<path fill-rule="evenodd" clip-rule="evenodd" d="M251.166 175.472L311.49 132.602L311.268 132.268L250.945 175.139L251.166 175.472Z" fill="#FF7433"/>
<path fill-rule="evenodd" clip-rule="evenodd" d="M250.945 175.471L251.166 175.139L172.695 119.07L172.472 119.403L250.945 175.471Z" fill="#FF7433"/>
<path fill-rule="evenodd" clip-rule="evenodd" d="M172.39 119.265L172.777 119.209L158.019 10.5125L157.633 10.5699L172.39 119.265Z" fill="#FF7433"/>
<path fill-rule="evenodd" clip-rule="evenodd" d="M172.712 119.39L282.927 20.5205L282.67 20.2149L172.455 119.084L172.712 119.39Z" fill="#FF7433"/>
<path fill-rule="evenodd" clip-rule="evenodd" d="M131.469 227.486L172.766 119.311L172.402 119.162L131.106 227.337L131.469 227.486Z" fill="#FF7433"/>
<path fill-rule="evenodd" clip-rule="evenodd" d="M131.363 227.598L251.131 175.491L250.98 175.118L131.211 227.226L131.363 227.598Z" fill="#FF7433"/>
<path fill-rule="evenodd" clip-rule="evenodd" d="M262.398 259.189L262.786 259.132L251.249 175.277L250.862 175.333L262.398 259.189Z" fill="#FF7433"/>
<path fill-rule="evenodd" clip-rule="evenodd" d="M389.817 209.147L390.084 208.851L311.512 132.287L311.245 132.582L389.817 209.147Z" fill="#FF7433"/>
<path fill-rule="evenodd" clip-rule="evenodd" d="M262.774 259.235L311.56 132.509L311.197 132.36L262.411 259.086L262.774 259.235Z" fill="#FF7433"/>
<path fill-rule="evenodd" clip-rule="evenodd" d="M78.1606 140.314L172.625 119.434L172.543 119.039L78.0777 139.918L78.1606 140.314Z" fill="#FF7433"/>
<path fill-rule="evenodd" clip-rule="evenodd" d="M131.121 227.519L131.453 227.304L78.2849 140.009L77.9532 140.223L131.121 227.519Z" fill="#FF7433"/>
<path fill-rule="evenodd" clip-rule="evenodd" d="M78.2841 140.225L157.991 10.65L157.661 10.4325L77.9539 140.007L78.2841 140.225Z" fill="#FF7433"/>
<path fill-rule="evenodd" clip-rule="evenodd" d="M77.9361 140.188L78.3015 140.044L62.4493 97.5926L62.0839 97.7381L77.9361 140.188Z" fill="#FF7433"/>
<path fill-rule="evenodd" clip-rule="evenodd" d="M2.79177 212.989L78.2529 140.264L77.9853 139.968L2.52496 212.694L2.79177 212.989Z" fill="#FF7433"/>
<path fill-rule="evenodd" clip-rule="evenodd" d="M131.267 227.613L131.307 227.21L2.67902 212.641L2.63754 213.043L131.267 227.613Z" fill="#FF7433"/>
<path fill-rule="evenodd" clip-rule="evenodd" d="M127.784 295.054L131.483 227.423L131.091 227.4L127.393 295.033L127.784 295.054Z" fill="#FF7433"/>
<path fill-rule="evenodd" clip-rule="evenodd" d="M41.5607 312.524L127.626 295.242L127.552 294.845L41.4856 312.128L41.5607 312.524Z" fill="#FF7433"/>
<path fill-rule="evenodd" clip-rule="evenodd" d="M127.484 295.214L127.693 294.873L2.76271 212.671L2.5538 213.013L127.484 295.214Z" fill="#FF7433"/>
<path fill-rule="evenodd" clip-rule="evenodd" d="M113.987 384.247L127.783 295.076L127.395 295.01L113.599 384.181L113.987 384.247Z" fill="#FF7433"/>
<path fill-rule="evenodd" clip-rule="evenodd" d="M279.251 339.494L279.634 339.409L262.784 259.118L262.401 259.203L279.251 339.494Z" fill="#FF7433"/>
<path fill-rule="evenodd" clip-rule="evenodd" d="M229.841 394.604L279.586 339.589L279.3 339.314L229.555 394.329L229.841 394.604Z" fill="#FF7433"/>
<path fill-rule="evenodd" clip-rule="evenodd" d="M289.921 374.77L290.294 374.65L279.63 339.392L279.256 339.511L289.921 374.77Z" fill="#FF7433"/>
<path fill-rule="evenodd" clip-rule="evenodd" d="M279.488 339.648L338.961 325.743L338.873 325.35L279.398 339.255L279.488 339.648Z" fill="#FF7433"/>
<path fill-rule="evenodd" clip-rule="evenodd" d="M279.592 339.583L343.563 262.415L343.266 262.151L279.294 339.32L279.592 339.583Z" fill="#FF7433"/>
<path fill-rule="evenodd" clip-rule="evenodd" d="M343.408 262.485L343.422 262.081L262.6 258.959L262.585 259.363L343.408 262.485Z" fill="#FF7433"/>
<path fill-rule="evenodd" clip-rule="evenodd" d="M343.225 262.332L343.603 262.233L311.568 132.385L311.189 132.484L343.225 262.332Z" fill="#FF7433"/>
<path fill-rule="evenodd" clip-rule="evenodd" d="M343.559 262.419L390.095 209.135L389.805 208.864L343.269 262.147L343.559 262.419Z" fill="#FF7433"/>
<path fill-rule="evenodd" clip-rule="evenodd" d="M361.971 296.578L362.319 296.394L343.588 262.192L343.24 262.374L361.971 296.578Z" fill="#FF7433"/>
<path fill-rule="evenodd" clip-rule="evenodd" d="M311.484 132.605L359.677 101.209L359.466 100.869L311.273 132.265L311.484 132.605Z" fill="#FF7433"/>
<path fill-rule="evenodd" clip-rule="evenodd" d="M230.296 67.9719L230.641 67.7819L197.562 2.98566L197.217 3.17565L230.296 67.9719Z" fill="#FF7433"/>
<path fill-rule="evenodd" clip-rule="evenodd" d="M172.442 119.375L172.726 119.099L94.807 34.9379L94.5229 35.2152L172.442 119.375Z" fill="#FF7433"/>
<path fill-rule="evenodd" clip-rule="evenodd" d="M248.862 175.139C248.862 176.327 249.795 177.29 250.945 177.29C252.094 177.29 253.028 176.327 253.028 175.139C253.028 173.95 252.094 172.987 250.945 172.987C249.795 172.987 248.862 173.95 248.862 175.139Z" fill="#FF7433"/>
<path fill-rule="evenodd" clip-rule="evenodd" d="M309.404 132.485C309.404 133.674 310.337 134.637 311.488 134.637C312.636 134.637 313.57 133.674 313.57 132.485C313.57 131.297 312.636 130.334 311.488 130.334C310.337 130.334 309.404 131.297 309.404 132.485Z" fill="#FF7433"/>
<path fill-rule="evenodd" clip-rule="evenodd" d="M260.559 258.959C260.559 260.146 261.491 261.11 262.642 261.11C263.792 261.11 264.724 260.146 264.724 258.959C264.724 257.77 263.792 256.807 262.642 256.807C261.491 256.807 260.559 257.77 260.559 258.959Z" fill="#FF7433"/>
<path fill-rule="evenodd" clip-rule="evenodd" d="M341.481 262.419C341.481 263.607 342.413 264.57 343.563 264.57C344.713 264.57 345.646 263.607 345.646 262.419C345.646 261.23 344.713 260.268 343.563 260.268C342.413 260.268 341.481 261.23 341.481 262.419Z" fill="#FF7433"/>
<path fill-rule="evenodd" clip-rule="evenodd" d="M277.315 339.314C277.315 340.502 278.248 341.465 279.398 341.465C280.548 341.465 281.481 340.502 281.481 339.314C281.481 338.126 280.548 337.163 279.398 337.163C278.248 337.163 277.315 338.126 277.315 339.314Z" fill="#FF7433"/>
<path fill-rule="evenodd" clip-rule="evenodd" d="M125.544 294.845C125.544 296.033 126.477 296.996 127.626 296.996C128.776 296.996 129.708 296.033 129.708 294.845C129.708 293.657 128.776 292.694 127.626 292.694C126.477 292.694 125.544 293.657 125.544 294.845Z" fill="#FF7433"/>
<path fill-rule="evenodd" clip-rule="evenodd" d="M129.401 227.215C129.401 228.403 130.332 229.366 131.483 229.366C132.633 229.366 133.565 228.403 133.565 227.215C133.565 226.027 132.633 225.064 131.483 225.064C130.332 225.064 129.401 226.027 129.401 227.215Z" fill="#FF7433"/>
<path fill-rule="evenodd" clip-rule="evenodd" d="M170.373 119.265C170.373 120.454 171.306 121.417 172.455 121.417C173.605 121.417 174.537 120.454 174.537 119.265C174.537 118.077 173.605 117.114 172.455 117.114C171.306 117.114 170.373 118.077 170.373 119.265Z" fill="#FF7433"/>
<path fill-rule="evenodd" clip-rule="evenodd" d="M76.2195 140.188C76.2195 141.377 77.1513 142.34 78.3015 142.34C79.4517 142.34 80.3835 141.377 80.3835 140.188C80.3835 139.001 79.4517 138.037 78.3015 138.037C77.1513 138.037 76.2195 139.001 76.2195 140.188Z" fill="#FF7433"/>
<path fill-rule="evenodd" clip-rule="evenodd" d="M227.691 67.972C227.691 69.1596 228.623 70.1233 229.773 70.1233C230.923 70.1233 231.855 69.1596 231.855 67.972C231.855 66.7835 230.923 65.8206 229.773 65.8206C228.623 65.8206 227.691 66.7835 227.691 67.972Z" fill="#FF7433"/>
<path fill-rule="evenodd" clip-rule="evenodd" d="M0.486694 212.75C0.486694 214.221 1.64156 215.414 3.06479 215.414C4.48801 215.414 5.64209 214.221 5.64209 212.75C5.64209 211.279 4.48801 210.086 3.06479 210.086C1.64156 210.086 0.486694 211.279 0.486694 212.75Z" fill="#FF7433"/>
<path fill-rule="evenodd" clip-rule="evenodd" d="M50.2487 211.029C50.2487 212.835 51.6649 214.298 53.4121 214.298C55.1585 214.298 56.5747 212.835 56.5747 211.029C56.5747 209.225 55.1585 207.761 53.4121 207.761C51.6649 207.761 50.2487 209.225 50.2487 211.029Z" fill="#FF7433"/>
<path fill-rule="evenodd" clip-rule="evenodd" d="M133.217 340.142C133.217 341.946 134.634 343.41 136.381 343.41C138.127 343.41 139.543 341.946 139.543 340.142C139.543 338.336 138.127 336.873 136.381 336.873C134.634 336.873 133.217 338.336 133.217 340.142Z" fill="#FF7433"/>
<path fill-rule="evenodd" clip-rule="evenodd" d="M38.3605 311.876C38.3605 313.681 39.7775 315.145 41.5239 315.145C43.2711 315.145 44.6865 313.681 44.6865 311.876C44.6865 310.071 43.2711 308.607 41.5239 308.607C39.7775 308.607 38.3605 310.071 38.3605 311.876Z" fill="#FF7433"/>
<path fill-rule="evenodd" clip-rule="evenodd" d="M111.488 384.747C111.488 386.062 112.52 387.128 113.793 387.128C115.066 387.128 116.098 386.062 116.098 384.747C116.098 383.431 115.066 382.364 113.793 382.364C112.52 382.364 111.488 383.431 111.488 384.747Z" fill="#FF7433"/>
<path fill-rule="evenodd" clip-rule="evenodd" d="M196.232 399.05C196.232 400.051 197.018 400.862 197.986 400.862C198.954 400.862 199.739 400.051 199.739 399.05C199.739 398.049 198.954 397.237 197.986 397.237C197.018 397.237 196.232 398.049 196.232 399.05Z" fill="#FF7433"/>
<path fill-rule="evenodd" clip-rule="evenodd" d="M226.996 394.467C226.996 396.271 228.413 397.735 230.16 397.735C231.907 397.735 233.323 396.271 233.323 394.467C233.323 392.662 231.907 391.198 230.16 391.198C228.413 391.198 226.996 392.662 226.996 394.467Z" fill="#FF7433"/>
<path fill-rule="evenodd" clip-rule="evenodd" d="M288.727 374.839C288.727 375.984 289.625 376.912 290.733 376.912C291.841 376.912 292.739 375.984 292.739 374.839C292.739 373.694 291.841 372.765 290.733 372.765C289.625 372.765 288.727 373.694 288.727 374.839Z" fill="#FF7433"/>
<path fill-rule="evenodd" clip-rule="evenodd" d="M255.574 321.511C255.574 323.315 256.99 324.779 258.737 324.779C260.484 324.779 261.901 323.315 261.901 321.511C261.901 319.705 260.484 318.242 258.737 318.242C256.99 318.242 255.574 319.705 255.574 321.511Z" fill="#FF7433"/>
<path fill-rule="evenodd" clip-rule="evenodd" d="M336.268 325.982C336.268 327.787 337.684 329.251 339.431 329.251C341.178 329.251 342.593 327.787 342.593 325.982C342.593 324.177 341.178 322.714 339.431 322.714C337.684 322.714 336.268 324.177 336.268 325.982Z" fill="#FF7433"/>
<path fill-rule="evenodd" clip-rule="evenodd" d="M359.657 297.021C359.657 298.112 360.513 298.997 361.57 298.997C362.627 298.997 363.483 298.112 363.483 297.021C363.483 295.928 362.627 295.043 361.57 295.043C360.513 295.043 359.657 295.928 359.657 297.021Z" fill="#FF7433"/>
<path fill-rule="evenodd" clip-rule="evenodd" d="M191.041 209.134C191.041 210.939 192.458 212.403 194.204 212.403C195.951 212.403 197.368 210.939 197.368 209.134C197.368 207.329 195.951 205.866 194.204 205.866C192.458 205.866 191.041 207.329 191.041 209.134Z" fill="#FF7433"/>
<path fill-rule="evenodd" clip-rule="evenodd" d="M325.736 209.531C325.736 211.336 327.153 212.8 328.9 212.8C330.646 212.8 332.062 211.336 332.062 209.531C332.062 207.727 330.646 206.263 328.9 206.263C327.153 206.263 325.736 207.727 325.736 209.531Z" fill="#FF7433"/>
<path fill-rule="evenodd" clip-rule="evenodd" d="M387.823 208.849C387.823 209.929 388.672 210.806 389.717 210.806C390.762 210.806 391.61 209.929 391.61 208.849C391.61 207.769 390.762 206.893 389.717 206.893C388.672 206.893 387.823 207.769 387.823 208.849Z" fill="#FF7433"/>
<path fill-rule="evenodd" clip-rule="evenodd" d="M352.093 107.829C352.093 109.634 353.51 111.098 355.256 111.098C357.003 111.098 358.418 109.634 358.418 107.829C358.418 106.025 357.003 104.561 355.256 104.561C353.51 104.561 352.093 106.025 352.093 107.829Z" fill="#FF7433"/>
<path fill-rule="evenodd" clip-rule="evenodd" d="M251.38 78.8927C251.38 80.698 252.797 82.1613 254.543 82.1613C256.29 82.1613 257.705 80.698 257.705 78.8927C257.705 77.0882 256.29 75.6241 254.543 75.6241C252.797 75.6241 251.38 77.0882 251.38 78.8927Z" fill="#FF7433"/>
<path fill-rule="evenodd" clip-rule="evenodd" d="M279.443 20.4462C279.443 22.2515 280.859 23.7148 282.605 23.7148C284.353 23.7148 285.769 22.2515 285.769 20.4462C285.769 18.6417 284.353 17.1783 282.605 17.1783C280.859 17.1783 279.443 18.6417 279.443 20.4462Z" fill="#FF7433"/>
<path fill-rule="evenodd" clip-rule="evenodd" d="M194.648 2.62268C194.648 3.94371 195.686 5.01574 196.964 5.01574C198.243 5.01574 199.279 3.94371 199.279 2.62268C199.279 1.30083 198.243 0.229614 196.964 0.229614C195.686 0.229614 194.648 1.30083 194.648 2.62268Z" fill="#FF7433"/>
<path fill-rule="evenodd" clip-rule="evenodd" d="M154.662 11.3468C154.662 13.1513 156.079 14.6155 157.826 14.6155C159.572 14.6155 160.989 13.1513 160.989 11.3468C160.989 9.54151 159.572 8.07819 157.826 8.07819C156.079 8.07819 154.662 9.54151 154.662 11.3468Z" fill="#FF7433"/>
<path fill-rule="evenodd" clip-rule="evenodd" d="M122.522 93.1234C122.522 94.9279 123.939 96.392 125.686 96.392C127.432 96.392 128.849 94.9279 128.849 93.1234C128.849 91.3181 127.432 89.8547 125.686 89.8547C123.939 89.8547 122.522 91.3181 122.522 93.1234Z" fill="#FF7433"/>
<path fill-rule="evenodd" clip-rule="evenodd" d="M92.5895 34.33C92.5895 35.8726 93.7999 37.1241 95.2928 37.1241C96.7857 37.1241 97.9961 35.8726 97.9961 34.33C97.9961 32.7883 96.7857 31.5367 95.2928 31.5367C93.7999 31.5367 92.5895 32.7883 92.5895 34.33Z" fill="#FF7433"/>
<path fill-rule="evenodd" clip-rule="evenodd" d="M59.5682 97.9208C59.5682 99.7261 60.9844 101.189 62.7316 101.189C64.478 101.189 65.895 99.7261 65.895 97.9208C65.895 96.1163 64.478 94.6522 62.7316 94.6522C60.9844 94.6522 59.5682 96.1163 59.5682 97.9208Z" fill="#FF7433"/>
<path fill-rule="evenodd" clip-rule="evenodd" d="M39.154 89.8547C39.154 91.1265 40.1524 92.1581 41.3839 92.1581C42.6147 92.1581 43.613 91.1265 43.613 89.8547C43.613 88.5822 42.6147 87.5506 41.3839 87.5506C40.1524 87.5506 39.154 88.5822 39.154 89.8547Z" fill="#FF7433"/>
<path fill-rule="evenodd" clip-rule="evenodd" d="M21.3817 117.613C21.3817 119.417 22.7987 120.881 24.5451 120.881C26.2923 120.881 27.7085 119.417 27.7085 117.613C27.7085 115.807 26.2923 114.344 24.5451 114.344C22.7987 114.344 21.3817 115.807 21.3817 117.613Z" fill="#FF7433"/>
<path fill-rule="evenodd" clip-rule="evenodd" d="M357.403 100.488C357.403 101.726 358.374 102.73 359.573 102.73C360.77 102.73 361.742 101.726 361.742 100.488C361.742 99.25 360.77 98.2466 359.573 98.2466C358.374 98.2466 357.403 99.25 357.403 100.488Z" fill="#FF7433"/>
<path fill-rule="evenodd" clip-rule="evenodd" d="M368.511 123.658C368.511 124.751 369.369 125.636 370.427 125.636C371.483 125.636 372.341 124.751 372.341 123.658C372.341 122.565 371.483 121.679 370.427 121.679C369.369 121.679 368.511 122.565 368.511 123.658Z" fill="#FF7433"/>
</g>
<defs>
<clipPath id="clip0">
<rect width="392" height="401" fill="white" transform="matrix(-1 0 0 1 392 0)"/>
</clipPath>
</defs>
</svg>
