<svg width="251" height="83" viewBox="0 0 251 83" fill="none" xmlns="http://www.w3.org/2000/svg">
<path fill-rule="evenodd" clip-rule="evenodd" d="M71.6849 52.6055C70.1943 52.6055 68.7679 52.3932 67.4055 51.9686C66.043 51.544 64.9775 51.0103 64.209 50.3677L65.3269 48.4396C66.0954 49.0364 67.0619 49.5241 68.2264 49.9029C69.3909 50.2816 70.6019 50.4709 71.8595 50.4709C73.5364 50.4709 74.7765 50.2127 75.58 49.6963C76.3835 49.1799 76.7852 48.4511 76.7852 47.5101C76.7852 46.8444 76.564 46.3223 76.1215 45.9435C75.679 45.5648 75.1201 45.2779 74.4447 45.0828C73.7693 44.8877 72.8726 44.6984 71.7547 44.5148C70.2642 44.2393 69.0648 43.9582 68.1565 43.6712C67.2482 43.3843 66.4739 42.8966 65.8334 42.208C65.193 41.5194 64.8727 40.5669 64.8727 39.3504C64.8727 37.8356 65.5132 36.5961 66.7941 35.6321C68.075 34.6681 69.8566 34.1861 72.139 34.1861C73.3268 34.1861 74.5145 34.341 75.7023 34.6509C76.8901 34.9608 77.8682 35.3682 78.6368 35.8731L77.5538 37.8356C76.04 36.8027 74.2351 36.2863 72.139 36.2863C70.5553 36.2863 69.3618 36.5617 68.5583 37.1126C67.7548 37.6634 67.3531 38.3864 67.3531 39.2816C67.3531 39.9702 67.5801 40.521 68.0343 40.9342C68.4884 41.3473 69.0532 41.6514 69.7286 41.8465C70.404 42.0416 71.3355 42.2425 72.5233 42.449C73.9905 42.7245 75.1666 42.9999 76.0516 43.2753C76.9366 43.5507 77.6935 44.0213 78.3223 44.6869C78.9512 45.3525 79.2656 46.2706 79.2656 47.4412C79.2656 49.0249 78.596 50.2816 77.2569 51.2112C75.9177 52.1407 74.0604 52.6055 71.6849 52.6055ZM141.643 26.8872V52.4334H139.268V48.8528C138.522 50.0693 137.538 50.9988 136.316 51.6415C135.093 52.2842 133.713 52.6055 132.176 52.6055C130.453 52.6055 128.892 52.2153 127.495 51.4349C126.098 50.6546 125.003 49.5643 124.211 48.1642C123.419 46.7641 123.023 45.1689 123.023 43.3786C123.023 41.5883 123.419 39.9931 124.211 38.593C125.003 37.1929 126.098 36.1084 127.495 35.3395C128.892 34.5706 130.453 34.1861 132.176 34.1861C133.667 34.1861 135.012 34.4902 136.211 35.0985C137.41 35.7067 138.394 36.5961 139.163 37.7667V26.8872H141.643ZM132.386 50.4365C133.667 50.4365 134.825 50.1439 135.862 49.5586C136.898 48.9733 137.713 48.1413 138.307 47.0625C138.901 45.9837 139.198 44.7558 139.198 43.3786C139.198 42.0014 138.901 40.7735 138.307 39.6947C137.713 38.6159 136.898 37.7839 135.862 37.1986C134.825 36.6133 133.667 36.3207 132.386 36.3207C131.081 36.3207 129.911 36.6133 128.875 37.1986C127.838 37.7839 127.023 38.6159 126.429 39.6947C125.836 40.7735 125.539 42.0014 125.539 43.3786C125.539 44.7558 125.836 45.9837 126.429 47.0625C127.023 48.1413 127.838 48.9733 128.875 49.5586C129.911 50.1439 131.081 50.4365 132.386 50.4365ZM153.02 52.6055C151.53 52.6055 150.103 52.3932 148.741 51.9686C147.378 51.544 146.313 51.0103 145.544 50.3677L146.662 48.4396C147.431 49.0364 148.397 49.5241 149.562 49.9029C150.726 50.2816 151.937 50.4709 153.195 50.4709C154.872 50.4709 156.112 50.2127 156.915 49.6963C157.719 49.1799 158.12 48.4511 158.12 47.5101C158.12 46.8444 157.899 46.3223 157.457 45.9435C157.014 45.5648 156.455 45.2779 155.78 45.0828C155.104 44.8877 154.208 44.6984 153.09 44.5148C151.599 44.2393 150.4 43.9582 149.492 43.6712C148.583 43.3843 147.809 42.8966 147.169 42.208C146.528 41.5194 146.208 40.5669 146.208 39.3504C146.208 37.8356 146.848 36.5961 148.129 35.6321C149.41 34.6681 151.192 34.1861 153.474 34.1861C154.662 34.1861 155.85 34.341 157.037 34.6509C158.225 34.9608 159.203 35.3682 159.972 35.8731L158.889 37.8356C157.375 36.8027 155.57 36.2863 153.474 36.2863C151.891 36.2863 150.697 36.5617 149.893 37.1126C149.09 37.6634 148.688 38.3864 148.688 39.2816C148.688 39.9702 148.915 40.521 149.369 40.9342C149.824 41.3473 150.388 41.6514 151.064 41.8465C151.739 42.0416 152.671 42.2425 153.858 42.449C155.326 42.7245 156.502 42.9999 157.387 43.2753C158.272 43.5507 159.029 44.0213 159.658 44.6869C160.286 45.3525 160.601 46.2706 160.601 47.4412C160.601 49.0249 159.931 50.2816 158.592 51.2112C157.253 52.1407 155.396 52.6055 153.02 52.6055ZM173.058 51.3317C172.592 51.7448 172.021 52.0604 171.346 52.2785C170.67 52.4965 169.96 52.6055 169.215 52.6055C167.491 52.6055 166.164 52.1465 165.232 51.2284C164.301 50.3103 163.835 49.0135 163.835 47.3379V30.3645H166.315V34.3238H171.87V36.3896H166.315V47.2002C166.315 48.279 166.583 49.0995 167.119 49.6619C167.654 50.2242 168.435 50.5054 169.459 50.5054C170.577 50.5054 171.486 50.1955 172.184 49.5758L173.058 51.3317ZM194.332 34.3238V52.4334H191.957V48.8528C191.212 50.0693 190.228 50.9988 189.005 51.6415C187.782 52.2842 186.402 52.6055 184.865 52.6055C183.142 52.6055 181.582 52.2153 180.184 51.4349C178.787 50.6546 177.692 49.5643 176.9 48.1642C176.108 46.7641 175.713 45.1689 175.713 43.3786C175.713 41.5883 176.108 39.9931 176.9 38.593C177.692 37.1929 178.787 36.1084 180.184 35.3395C181.582 34.5706 183.142 34.1861 184.865 34.1861C186.356 34.1861 187.701 34.4902 188.9 35.0985C190.1 35.7067 191.084 36.5961 191.852 37.7667V34.3238H194.332ZM185.075 50.4365C186.356 50.4365 187.514 50.1439 188.551 49.5586C189.587 48.9733 190.402 48.1413 190.996 47.0625C191.59 45.9837 191.887 44.7558 191.887 43.3786C191.887 42.0014 191.59 40.7735 190.996 39.6947C190.402 38.6159 189.587 37.7839 188.551 37.1986C187.514 36.6133 186.356 36.3207 185.075 36.3207C183.771 36.3207 182.6 36.6133 181.564 37.1986C180.528 37.7839 179.713 38.6159 179.119 39.6947C178.525 40.7735 178.228 42.0014 178.228 43.3786C178.228 44.7558 178.525 45.9837 179.119 47.0625C179.713 48.1413 180.528 48.9733 181.564 49.5586C182.6 50.1439 183.771 50.4365 185.075 50.4365ZM201.177 37.87C201.759 36.6535 202.626 35.7354 203.779 35.1157C204.932 34.496 206.358 34.1861 208.059 34.1861V36.5617L207.465 36.5273C205.532 36.5273 204.018 37.1126 202.923 38.2831C201.829 39.4537 201.281 41.0948 201.281 43.2065V52.4334H198.801V34.3238H201.177V37.87ZM217.735 52.6055C216.245 52.6055 214.818 52.3932 213.456 51.9686C212.093 51.544 211.028 51.0103 210.259 50.3677L211.377 48.4396C212.146 49.0364 213.112 49.5241 214.277 49.9029C215.441 50.2816 216.652 50.4709 217.91 50.4709C219.587 50.4709 220.827 50.2127 221.63 49.6963C222.434 49.1799 222.836 48.4511 222.836 47.5101C222.836 46.8444 222.614 46.3223 222.172 45.9435C221.729 45.5648 221.17 45.2779 220.495 45.0828C219.82 44.8877 218.923 44.6984 217.805 44.5148C216.315 44.2393 215.115 43.9582 214.207 43.6712C213.299 43.3843 212.524 42.8966 211.884 42.208C211.243 41.5194 210.923 40.5669 210.923 39.3504C210.923 37.8356 211.564 36.5961 212.845 35.6321C214.125 34.6681 215.907 34.1861 218.189 34.1861C219.377 34.1861 220.565 34.341 221.753 34.6509C222.94 34.9608 223.919 35.3682 224.687 35.8731L223.604 37.8356C222.09 36.8027 220.285 36.2863 218.189 36.2863C216.606 36.2863 215.412 36.5617 214.609 37.1126C213.805 37.6634 213.403 38.3864 213.403 39.2816C213.403 39.9702 213.631 40.521 214.085 40.9342C214.539 41.3473 215.104 41.6514 215.779 41.8465C216.454 42.0416 217.386 42.2425 218.574 42.449C220.041 42.7245 221.217 42.9999 222.102 43.2753C222.987 43.5507 223.744 44.0213 224.373 44.6869C225.002 45.3525 225.316 46.2706 225.316 47.4412C225.316 49.0249 224.646 50.2816 223.307 51.2112C221.968 52.1407 220.111 52.6055 217.735 52.6055ZM99.198 44.0051H84.149C84.2858 45.9163 85.004 47.4604 86.3037 48.6374C87.6034 49.8145 89.2451 50.403 91.2289 50.403C92.3462 50.403 93.3722 50.199 94.3071 49.7911C95.242 49.3833 96.0514 48.7831 96.7355 47.9906L98.1036 49.5989C97.3055 50.5778 96.3079 51.3236 95.1109 51.8364C93.9138 52.3491 92.597 52.6055 91.1605 52.6055C89.3135 52.6055 87.6775 52.2035 86.2524 51.3994C84.8273 50.5952 83.7158 49.4823 82.9177 48.0606C82.1196 46.6388 81.7206 45.0306 81.7206 43.2359C81.7206 41.4412 82.1025 39.833 82.8664 38.4113C83.6303 36.9895 84.6791 35.8824 86.013 35.09C87.3469 34.2975 88.8461 33.9013 90.5106 33.9013C92.1752 33.9013 93.6686 34.2975 94.9911 35.09C96.3136 35.8824 97.3511 36.9837 98.1036 38.3938C98.856 39.8039 99.2322 41.4179 99.2322 43.2359L99.198 44.0051ZM90.5106 36.0339C88.7777 36.0339 87.3241 36.5991 86.1498 37.7295C84.9755 38.86 84.3086 40.3341 84.149 42.1521H96.9065C96.7469 40.3341 96.0799 38.86 94.9056 37.7295C93.7314 36.5991 92.2664 36.0339 90.5106 36.0339ZM120.212 44.0051H105.163C105.3 45.9163 106.018 47.4604 107.318 48.6374C108.617 49.8145 110.259 50.403 112.243 50.403C113.36 50.403 114.386 50.199 115.321 49.7911C116.256 49.3833 117.065 48.7831 117.749 47.9906L119.118 49.5989C118.319 50.5778 117.322 51.3236 116.125 51.8364C114.928 52.3491 113.611 52.6055 112.174 52.6055C110.327 52.6055 108.691 52.2035 107.266 51.3994C105.841 50.5952 104.73 49.4823 103.932 48.0606C103.134 46.6388 102.735 45.0306 102.735 43.2359C102.735 41.4412 103.116 39.833 103.88 38.4113C104.644 36.9895 105.693 35.8824 107.027 35.09C108.361 34.2975 109.86 33.9013 111.525 33.9013C113.189 33.9013 114.683 34.2975 116.005 35.09C117.328 35.8824 118.365 36.9837 119.118 38.3938C119.87 39.8039 120.246 41.4179 120.246 43.2359L120.212 44.0051ZM111.525 36.0339C109.792 36.0339 108.338 36.5991 107.164 37.7295C105.989 38.86 105.323 40.3341 105.163 42.1521H117.92C117.761 40.3341 117.094 38.86 115.92 37.7295C114.745 36.5991 113.28 36.0339 111.525 36.0339Z" fill="white"/>
<mask id="mask0" mask-type="alpha" maskUnits="userSpaceOnUse" x="28" y="28" width="27" height="27">
<path d="M39.0631 28.8745C38.7446 28.8745 38.489 29.138 38.4997 29.4609C38.5665 31.402 38.8294 34.5941 39.2889 39.0388C37.4437 37.9715 34.5318 36.7177 30.5531 35.2769C30.2549 35.1691 29.9229 35.3322 29.8252 35.6385L28.3383 40.2994C28.2389 40.612 28.4153 40.9468 28.7281 41.0295C31.6665 41.8121 34.7581 42.5235 38.0031 43.1612C36.7179 44.3619 34.6205 46.7753 31.7091 50.4032C31.5047 50.6582 31.5519 51.0386 31.8147 51.2303L35.6226 54.0162C35.8726 54.1987 36.2219 54.1468 36.4028 53.8941C37.8273 51.904 39.4597 49.1295 41.2993 45.5695C43.2698 49.0159 44.997 51.7887 46.4805 53.8896C46.6597 54.1451 47.0085 54.1999 47.2607 54.0191L51.1366 51.2309C51.4028 51.0398 51.4511 50.6542 51.2438 50.3981C48.4549 46.9533 46.2789 44.541 44.7156 43.1612C47.8118 42.8007 50.968 42.0979 54.1844 41.0541C54.4816 40.9577 54.6467 40.6302 54.5506 40.3291L53.0514 35.6305C52.9548 35.3271 52.6285 35.1622 52.3308 35.2638C48.9886 36.4109 46.0075 37.6555 43.3888 38.9977C43.8865 35.2335 44.1882 32.0552 44.2932 29.4632C44.3061 29.1398 44.0489 28.8745 43.7292 28.8745H39.0631Z" fill="white"/>
</mask>
<g mask="url(#mask0)">
<path d="M39.0631 28.8745C38.7446 28.8745 38.489 29.138 38.4997 29.4609C38.5665 31.402 38.8294 34.5941 39.2889 39.0388C37.4437 37.9715 34.5318 36.7177 30.5531 35.2769C30.2549 35.1691 29.9229 35.3322 29.8252 35.6385L28.3383 40.2994C28.2389 40.612 28.4153 40.9468 28.7281 41.0295C31.6665 41.8121 34.7581 42.5235 38.0031 43.1612C36.7179 44.3619 34.6205 46.7753 31.7091 50.4032C31.5047 50.6582 31.5519 51.0386 31.8147 51.2303L35.6226 54.0162C35.8726 54.1987 36.2219 54.1468 36.4028 53.8941C37.8273 51.904 39.4597 49.1295 41.2993 45.5695C43.2698 49.0159 44.997 51.7887 46.4805 53.8896C46.6597 54.1451 47.0085 54.1999 47.2607 54.0191L51.1366 51.2309C51.4028 51.0398 51.4511 50.6542 51.2438 50.3981C48.4549 46.9533 46.2789 44.541 44.7156 43.1612C47.8118 42.8007 50.968 42.0979 54.1844 41.0541C54.4816 40.9577 54.6467 40.6302 54.5506 40.3291L53.0514 35.6305C52.9548 35.3271 52.6285 35.1622 52.3308 35.2638C48.9886 36.4109 46.0075 37.6555 43.3888 38.9977C43.8865 35.2335 44.1882 32.0552 44.2932 29.4632C44.3061 29.1398 44.0489 28.8745 43.7292 28.8745H39.0631Z" fill="#FF5100"/>
<path d="M57.3258 25.1924H25.6836V56.8772H57.3258V25.1924Z" fill="white"/>
</g>
</svg>
