<svg width="389" height="389" viewBox="0 0 389 389" fill="none" xmlns="http://www.w3.org/2000/svg">
<g filter="url(#filter0_b)">
<rect x="1" y="1" width="387" height="387" fill="url(#paint0_linear)"/>
<rect x="1" y="1" width="387" height="387" stroke="url(#paint1_linear)" stroke-opacity="0.6"/>
</g>
<path fill-rule="evenodd" clip-rule="evenodd" d="M114.099 211.591C111.872 211.591 109.741 211.274 107.706 210.64C105.67 210.006 104.078 209.208 102.93 208.248L104.6 205.368C105.749 206.259 107.193 206.988 108.932 207.554C110.672 208.12 112.481 208.402 114.36 208.402C116.866 208.402 118.718 208.017 119.919 207.245C121.119 206.474 121.719 205.385 121.719 203.979C121.719 202.985 121.389 202.204 120.728 201.639C120.067 201.073 119.232 200.644 118.223 200.353C117.213 200.061 115.874 199.778 114.204 199.504C111.977 199.093 110.185 198.673 108.828 198.244C107.471 197.815 106.314 197.087 105.357 196.058C104.4 195.029 103.922 193.606 103.922 191.789C103.922 189.526 104.879 187.674 106.792 186.234C108.706 184.793 111.368 184.073 114.778 184.073C116.552 184.073 118.327 184.305 120.101 184.768C121.876 185.231 123.337 185.839 124.486 186.594L122.868 189.526C120.606 187.982 117.909 187.211 114.778 187.211C112.412 187.211 110.629 187.622 109.428 188.445C108.228 189.268 107.627 190.348 107.627 191.686C107.627 192.715 107.967 193.538 108.645 194.155C109.324 194.772 110.168 195.226 111.177 195.518C112.186 195.809 113.577 196.109 115.352 196.418C117.544 196.829 119.301 197.241 120.623 197.652C121.946 198.064 123.076 198.767 124.016 199.761C124.955 200.756 125.425 202.127 125.425 203.876C125.425 206.242 124.425 208.12 122.424 209.508C120.423 210.897 117.648 211.591 114.099 211.591ZM218.619 173.169V211.334H215.07V205.985C213.956 207.802 212.486 209.191 210.659 210.151C208.833 211.111 206.771 211.591 204.475 211.591C201.9 211.591 199.569 211.009 197.481 209.843C195.393 208.677 193.758 207.048 192.575 204.956C191.392 202.865 190.8 200.481 190.8 197.807C190.8 195.132 191.392 192.749 192.575 190.657C193.758 188.565 195.393 186.945 197.481 185.796C199.569 184.648 201.9 184.073 204.475 184.073C206.701 184.073 208.711 184.528 210.503 185.436C212.295 186.345 213.765 187.674 214.913 189.423V173.169H218.619ZM204.788 208.351C206.701 208.351 208.433 207.914 209.981 207.039C211.529 206.165 212.747 204.922 213.634 203.31C214.522 201.699 214.965 199.864 214.965 197.807C214.965 195.749 214.522 193.915 213.634 192.303C212.747 190.691 211.529 189.448 209.981 188.574C208.433 187.7 206.701 187.262 204.788 187.262C202.839 187.262 201.091 187.7 199.542 188.574C197.994 189.448 196.776 190.691 195.889 192.303C195.002 193.915 194.558 195.749 194.558 197.807C194.558 199.864 195.002 201.699 195.889 203.31C196.776 204.922 197.994 206.165 199.542 207.039C201.091 207.914 202.839 208.351 204.788 208.351ZM235.616 211.591C233.389 211.591 231.258 211.274 229.222 210.64C227.187 210.006 225.595 209.208 224.447 208.248L226.117 205.368C227.265 206.259 228.709 206.988 230.449 207.554C232.189 208.12 233.998 208.402 235.877 208.402C238.382 208.402 240.235 208.017 241.435 207.245C242.636 206.474 243.236 205.385 243.236 203.979C243.236 202.985 242.906 202.204 242.244 201.639C241.583 201.073 240.748 200.644 239.739 200.353C238.73 200.061 237.391 199.778 235.72 199.504C233.494 199.093 231.702 198.673 230.345 198.244C228.988 197.815 227.831 197.087 226.874 196.058C225.917 195.029 225.439 193.606 225.439 191.789C225.439 189.526 226.395 187.674 228.309 186.234C230.223 184.793 232.885 184.073 236.295 184.073C238.069 184.073 239.844 184.305 241.618 184.768C243.393 185.231 244.854 185.839 246.002 186.594L244.384 189.526C242.123 187.982 239.426 187.211 236.295 187.211C233.928 187.211 232.145 187.622 230.945 188.445C229.744 189.268 229.144 190.348 229.144 191.686C229.144 192.715 229.483 193.538 230.162 194.155C230.84 194.772 231.684 195.226 232.693 195.518C233.702 195.809 235.094 196.109 236.869 196.418C239.061 196.829 240.818 197.241 242.14 197.652C243.462 198.064 244.593 198.767 245.533 199.761C246.472 200.756 246.942 202.127 246.942 203.876C246.942 206.242 245.941 208.12 243.941 209.508C241.94 210.897 239.165 211.591 235.616 211.591ZM265.553 209.688C264.857 210.306 264.004 210.777 262.995 211.103C261.986 211.429 260.925 211.591 259.811 211.591C257.237 211.591 255.253 210.906 253.862 209.534C252.47 208.162 251.774 206.225 251.774 203.722V178.364H255.479V184.279H263.778V187.365H255.479V203.516C255.479 205.128 255.88 206.354 256.68 207.194C257.48 208.034 258.646 208.454 260.177 208.454C261.847 208.454 263.204 207.991 264.248 207.065L265.553 209.688ZM297.338 184.279V211.334H293.789V205.985C292.675 207.802 291.205 209.191 289.378 210.151C287.552 211.111 285.49 211.591 283.194 211.591C280.619 211.591 278.288 211.009 276.2 209.843C274.112 208.677 272.477 207.048 271.294 204.956C270.111 202.865 269.519 200.481 269.519 197.807C269.519 195.132 270.111 192.749 271.294 190.657C272.477 188.565 274.112 186.945 276.2 185.796C278.288 184.648 280.619 184.073 283.194 184.073C285.42 184.073 287.43 184.528 289.222 185.436C291.014 186.345 292.484 187.674 293.632 189.423V184.279H297.338ZM283.507 208.351C285.42 208.351 287.152 207.914 288.7 207.039C290.248 206.165 291.466 204.922 292.353 203.31C293.241 201.699 293.684 199.864 293.684 197.807C293.684 195.749 293.241 193.915 292.353 192.303C291.466 190.691 290.248 189.448 288.7 188.574C287.152 187.7 285.42 187.262 283.507 187.262C281.558 187.262 279.81 187.7 278.261 188.574C276.713 189.448 275.495 190.691 274.608 192.303C273.721 193.915 273.277 195.749 273.277 197.807C273.277 199.864 273.721 201.699 274.608 203.31C275.495 204.922 276.713 206.165 278.261 207.039C279.81 207.914 281.558 208.351 283.507 208.351ZM307.563 189.577C308.433 187.76 309.729 186.388 311.451 185.462C313.174 184.536 315.305 184.073 317.845 184.073V187.622L316.958 187.571C314.07 187.571 311.808 188.445 310.173 190.194C308.537 191.943 307.72 194.395 307.72 197.55V211.334H304.014V184.279H307.563V189.577ZM332.302 211.591C330.075 211.591 327.944 211.274 325.909 210.64C323.873 210.006 322.281 209.208 321.133 208.248L322.803 205.368C323.951 206.259 325.395 206.988 327.135 207.554C328.875 208.12 330.684 208.402 332.563 208.402C335.068 208.402 336.921 208.017 338.122 207.245C339.322 206.474 339.922 205.385 339.922 203.979C339.922 202.985 339.592 202.204 338.931 201.639C338.269 201.073 337.434 200.644 336.425 200.353C335.416 200.061 334.077 199.778 332.407 199.504C330.18 199.093 328.388 198.673 327.031 198.244C325.674 197.815 324.517 197.087 323.56 196.058C322.603 195.029 322.125 193.606 322.125 191.789C322.125 189.526 323.081 187.674 324.995 186.234C326.909 184.793 329.571 184.073 332.981 184.073C334.755 184.073 336.53 184.305 338.304 184.768C340.079 185.231 341.54 185.839 342.688 186.594L341.07 189.526C338.809 187.982 336.112 187.211 332.981 187.211C330.615 187.211 328.831 187.622 327.631 188.445C326.43 189.268 325.83 190.348 325.83 191.686C325.83 192.715 326.17 193.538 326.848 194.155C327.527 194.772 328.37 195.226 329.379 195.518C330.388 195.809 331.78 196.109 333.555 196.418C335.747 196.829 337.504 197.241 338.826 197.652C340.148 198.064 341.279 198.767 342.219 199.761C343.158 200.756 343.628 202.127 343.628 203.876C343.628 206.242 342.628 208.12 340.627 209.508C338.626 210.897 335.851 211.591 332.302 211.591ZM155.205 198.743H132.721C132.925 201.598 133.998 203.905 135.94 205.663C137.882 207.422 140.335 208.301 143.299 208.301C144.968 208.301 146.501 207.996 147.897 207.387C149.294 206.778 150.504 205.881 151.526 204.697L153.569 207.1C152.377 208.562 150.887 209.676 149.098 210.442C147.31 211.208 145.343 211.591 143.196 211.591C140.437 211.591 137.993 210.991 135.864 209.79C133.734 208.588 132.074 206.926 130.881 204.801C129.689 202.677 129.093 200.275 129.093 197.594C129.093 194.912 129.664 192.51 130.805 190.386C131.946 188.262 133.513 186.608 135.506 185.424C137.499 184.24 139.739 183.648 142.225 183.648C144.712 183.648 146.944 184.24 148.919 185.424C150.895 186.608 152.445 188.253 153.569 190.36C154.694 192.466 155.256 194.878 155.256 197.594L155.205 198.743ZM142.225 186.834C139.636 186.834 137.465 187.678 135.71 189.367C133.956 191.056 132.959 193.258 132.721 195.974H151.781C151.543 193.258 150.546 191.056 148.792 189.367C147.037 187.678 144.849 186.834 142.225 186.834ZM186.6 198.743H164.116C164.321 201.598 165.394 203.905 167.336 205.663C169.277 207.422 171.73 208.301 174.694 208.301C176.363 208.301 177.896 207.996 179.293 207.387C180.69 206.778 181.899 205.881 182.921 204.697L184.965 207.1C183.773 208.562 182.282 209.676 180.494 210.442C178.705 211.208 176.738 211.591 174.592 211.591C171.832 211.591 169.388 210.991 167.259 209.79C165.13 208.588 163.469 206.926 162.277 204.801C161.084 202.677 160.488 200.275 160.488 197.594C160.488 194.912 161.059 192.51 162.2 190.386C163.341 188.262 164.908 186.608 166.901 185.424C168.894 184.24 171.134 183.648 173.621 183.648C176.108 183.648 178.339 184.24 180.315 185.424C182.291 186.608 183.841 188.253 184.965 190.36C186.089 192.466 186.651 194.878 186.651 197.594L186.6 198.743ZM173.621 186.834C171.032 186.834 168.86 187.678 167.106 189.367C165.351 191.056 164.355 193.258 164.116 195.974H183.176C182.938 193.258 181.941 191.056 180.187 189.367C178.433 187.678 176.244 186.834 173.621 186.834Z" fill="white"/>
<mask id="mask0" mask-type="alpha" maskUnits="userSpaceOnUse" x="49" y="176" width="40" height="38">
<path d="M65.3609 176.138C64.8851 176.138 64.5033 176.531 64.5192 177.014C64.6191 179.914 65.0118 184.683 65.6983 191.323C62.9415 189.728 58.591 187.855 52.6469 185.703C52.2012 185.542 51.7053 185.785 51.5593 186.243L49.3379 193.206C49.1893 193.673 49.4528 194.173 49.9203 194.297C54.3102 195.466 58.9292 196.529 63.7773 197.482C61.8572 199.275 58.7236 202.881 54.374 208.301C54.0685 208.682 54.139 209.25 54.5317 209.537L60.2208 213.699C60.5942 213.972 61.1162 213.894 61.3864 213.516C63.5147 210.543 65.9534 206.398 68.7018 201.08C71.6458 206.229 74.2264 210.371 76.4427 213.51C76.7104 213.891 77.2316 213.973 77.6084 213.703L83.399 209.538C83.7968 209.252 83.8689 208.676 83.5593 208.293C79.3926 203.147 76.1415 199.543 73.8059 197.482C78.4317 196.943 83.1472 195.893 87.9525 194.334C88.3965 194.19 88.6432 193.7 88.4997 193.251L86.2598 186.231C86.1155 185.778 85.6279 185.531 85.1831 185.683C80.1898 187.397 75.7361 189.256 71.8237 191.262C72.5673 185.638 73.0179 180.89 73.1748 177.017C73.1941 176.534 72.8098 176.138 72.3323 176.138H65.3609Z" fill="white"/>
</mask>
<g mask="url(#mask0)">
<path d="M65.3609 176.138C64.8851 176.138 64.5033 176.531 64.5192 177.014C64.6191 179.914 65.0118 184.683 65.6983 191.323C62.9415 189.728 58.591 187.855 52.6469 185.703C52.2012 185.542 51.7053 185.785 51.5593 186.243L49.3379 193.206C49.1893 193.673 49.4528 194.173 49.9203 194.297C54.3102 195.466 58.9292 196.529 63.7773 197.482C61.8572 199.275 58.7236 202.881 54.374 208.301C54.0685 208.682 54.139 209.25 54.5317 209.537L60.2208 213.699C60.5942 213.972 61.1162 213.894 61.3864 213.516C63.5147 210.543 65.9534 206.398 68.7018 201.08C71.6458 206.229 74.2264 210.371 76.4427 213.51C76.7104 213.891 77.2316 213.973 77.6084 213.703L83.399 209.538C83.7968 209.252 83.8689 208.676 83.5593 208.293C79.3926 203.147 76.1415 199.543 73.8059 197.482C78.4317 196.943 83.1472 195.893 87.9525 194.334C88.3965 194.19 88.6432 193.7 88.4997 193.251L86.2598 186.231C86.1155 185.778 85.6279 185.531 85.1831 185.683C80.1898 187.397 75.7361 189.256 71.8237 191.262C72.5673 185.638 73.0179 180.89 73.1748 177.017C73.1941 176.534 72.8098 176.138 72.3323 176.138H65.3609Z" fill="#FF5100"/>
<path d="M92.6462 170.637H45.3721V217.973H92.6462V170.637Z" fill="white"/>
</g>
<defs>
<filter id="filter0_b" x="-9.5" y="-9.5" width="408" height="408" filterUnits="userSpaceOnUse" color-interpolation-filters="sRGB">
<feFlood flood-opacity="0" result="BackgroundImageFix"/>
<feGaussianBlur in="BackgroundImage" stdDeviation="5"/>
<feComposite in2="SourceAlpha" operator="in" result="effect1_backgroundBlur"/>
<feBlend mode="normal" in="SourceGraphic" in2="effect1_backgroundBlur" result="shape"/>
</filter>
<linearGradient id="paint0_linear" x1="26.0412" y1="0.999992" x2="329.473" y2="145.599" gradientUnits="userSpaceOnUse">
<stop stop-color="white" stop-opacity="0.4"/>
<stop offset="1" stop-color="white" stop-opacity="0.1"/>
</linearGradient>
<linearGradient id="paint1_linear" x1="34.0088" y1="1.00001" x2="471.755" y2="166.593" gradientUnits="userSpaceOnUse">
<stop stop-color="white" stop-opacity="0.5"/>
<stop offset="0.457592" stop-color="white" stop-opacity="0"/>
<stop offset="0.67849" stop-color="#FF7433"/>
<stop offset="1" stop-color="#FF7433"/>
</linearGradient>
</defs>
</svg>
